<svg aria-hidden="true" style="position: absolute; width: 0; height: 0; overflow: hidden;" version="1.1" xmlns="http://www.w3.org/2000/svg" xmlns:xlink="http://www.w3.org/1999/xlink">
<defs>
<symbol id="instagram" viewBox="0 0 32 32">
<path d="M26.625 25.438v-11.563h-2.438c0.25 0.75 0.375 1.563 0.375 2.375 0 1.5-0.375 2.875-1.125 4.125-0.813 1.25-1.813 2.25-3.125 3s-2.75 1.125-4.313 1.125c-2.313 0-4.313-0.813-6-2.438s-2.5-3.563-2.5-5.813c0-0.813 0.125-1.625 0.375-2.375h-2.563v11.563c0 0.313 0.125 0.625 0.313 0.813 0.25 0.188 0.5 0.313 0.813 0.313h19.063c0.313 0 0.563-0.125 0.813-0.313 0.188-0.188 0.313-0.5 0.313-0.813zM21.563 15.938c0-1.438-0.563-2.75-1.625-3.75-1.125-1.063-2.375-1.563-3.938-1.563-1.5 0-2.813 0.5-3.875 1.563-1.063 1-1.625 2.313-1.625 3.75 0 1.5 0.563 2.75 1.625 3.813 1.063 1 2.375 1.563 3.875 1.563 1.563 0 2.813-0.563 3.938-1.563 1.063-1.063 1.625-2.313 1.625-3.813zM26.625 9.5v-2.938c0-0.313-0.125-0.625-0.375-0.875s-0.5-0.375-0.875-0.375h-3.125c-0.313 0-0.625 0.125-0.875 0.375s-0.313 0.563-0.313 0.875v2.938c0 0.375 0.063 0.625 0.313 0.875s0.563 0.375 0.875 0.375h3.125c0.375 0 0.625-0.125 0.875-0.375s0.375-0.5 0.375-0.875zM29.688 5.813v20.375c0 1-0.313 1.813-1 2.5s-1.5 1-2.5 1h-20.375c-1 0-1.813-0.313-2.5-1s-1-1.5-1-2.5v-20.375c0-1 0.313-1.813 1-2.5s1.5-1 2.5-1h20.375c1 0 1.813 0.313 2.5 1s1 1.5 1 2.5z"></path>
</symbol>
<symbol id="split" viewBox="0 0 32 32">
<path d="M14 8l-8-8-6 6 9.75 9.375c0.438-2.5 1.313-4.25 4.125-7.188l0.188-0.188zM18 0l4.188 4.188-6.188 6.125c-3.063 3.125-4 5.063-4 9.688v12h8v-12c0-1.625 0.625-2.938 1.688-4l6.125-6.188 4.188 4.188v-14.063h-14z"></path>
</symbol>
<symbol id="videocamera" viewBox="0 0 32 32">
<path d="M22.938 11.563c0-0.313-0.25-0.563-0.563-0.563h-3.25v-2c0-2.188-1.813-4-4.063-4h-11.125v3h11c0.313 0 0.625 0.375 0.625 0.625v2.375h-13c-0.313 0-0.563 0.25-0.563 0.563v14.875c0 0.313 0.25 0.563 0.563 0.563h19.813c0.313 0 0.563-0.25 0.563-0.563v-4.063l7.063 2.188v-11l-7.063 2.125zM16.125 21.313h-7.375c-1.25 0-2.25-1-2.25-2.25s1-2.25 2.25-2.25c1.25 0 2.25 1.063 2.25 2.25 0 0.625-0.25 1.188-0.688 1.625h4.25c-0.375-0.438-0.688-1-0.688-1.625 0-1.188 1-2.188 2.25-2.188s2.25 0.938 2.25 2.188c0 1.25-1 2.25-2.25 2.25z"></path>
</symbol>
<symbol id="group-2" viewBox="0 0 32 32">
<path d="M8 20c0-2 0-10 0-10s0-0.438 0.25-1c-2.063 0-4.25 0-4.25 0s-2 0-2 2v7c0 2 2 2 2 2v10h6v-8c0 0-2 0-2-2zM8 8c0.5 0 1-0.125 1.438-0.375 0.063-0.063 0.125-0.063 0.188-0.125 0.813-0.5 1.375-1.438 1.375-2.5 0-1.688-1.313-3-3-3s-3 1.313-3 3c0 1.688 1.313 3 3 3zM28 9h-4.25c0.25 0.563 0.25 1 0.25 1s0 8 0 10c0 2-2 2-2 2v8h6v-10c0 0 2 0 2-2s0-7 0-7c0 0 0-2-2-2zM22.375 7.5c0.063 0.063 0.125 0.063 0.188 0.125 0.438 0.25 0.938 0.375 1.438 0.375 1.688 0 3-1.313 3-3s-1.313-3-3-3c-1.688 0-3 1.313-3 3 0 1.063 0.563 2 1.375 2.5zM16 8c1.688 0 3-1.313 3-3s-1.313-3-3-3c-1.688 0-3 1.313-3 3s1.313 3 3 3zM22 11c0 0 0-2-2-2-0.5 0-8 0-8 0s-2 0-2 2v7c0 2 2 2 2 2v10h8v-10c0 0 2 0 2-2s0-7 0-7z"></path>
</symbol>
<symbol id="apple" viewBox="0 0 32 32">
<path d="M28.313 21.688c-0.5 1.5-1.188 3-2.188 4.5-1.563 2.313-3.063 3.5-4.625 3.5-0.563 0-1.375-0.188-2.5-0.625-1-0.375-1.875-0.563-2.688-0.563-0.688 0-1.563 0.188-2.5 0.625-1 0.375-1.75 0.563-2.375 0.563-1.813 0-3.625-1.5-5.375-4.625-1.75-3.063-2.625-6.063-2.625-8.938 0-2.75 0.688-4.938 2-6.688 1.375-1.75 3.063-2.563 5.063-2.563 0.875 0 1.938 0.188 3.188 0.5 1.25 0.375 2.063 0.563 2.438 0.563 0.563 0 1.375-0.188 2.563-0.625 1.25-0.375 2.25-0.625 3.125-0.625 1.375 0 2.688 0.438 3.75 1.188 0.625 0.438 1.25 1 1.875 1.813-0.938 0.75-1.625 1.5-2 2.063-0.813 1.125-1.188 2.375-1.188 3.688 0 1.5 0.438 2.813 1.25 4s1.75 1.938 2.813 2.25zM21.563 0.75c0 0.75-0.125 1.563-0.5 2.438s-0.875 1.688-1.625 2.438c-0.688 0.688-1.313 1.063-1.938 1.313-0.438 0.125-1.063 0.25-1.875 0.313 0.063-1.813 0.5-3.313 1.375-4.625 0.875-1.25 2.375-2.125 4.5-2.625 0 0.063 0 0.125 0 0.188 0.063 0.125 0.063 0.188 0.063 0.188 0 0.063 0 0.125 0 0.188s0 0.125 0 0.188z"></path>
</symbol>
<symbol id="snapchat" viewBox="0 0 32 32">
<path d="M16.313 2.313c1.563-0.063 3 0.375 4.25 1.188 1.313 0.813 2.25 2 2.938 3.438 0.313 0.688 0.5 1.75 0.5 3.188 0 0.563-0.063 1.688-0.188 3.438 0.188 0.063 0.313 0.125 0.5 0.125 0.25 0 0.5-0.063 0.938-0.25 0.375-0.188 0.688-0.25 0.875-0.25 0.375 0 0.688 0.125 1 0.313 0.313 0.25 0.5 0.5 0.5 0.813 0 0.438-0.188 0.75-0.563 1s-0.813 0.438-1.25 0.563c-0.438 0.125-0.813 0.25-1.188 0.5s-0.563 0.5-0.563 0.875c0 0.188 0.063 0.438 0.188 0.75 0.438 1 1.063 1.875 1.813 2.688 0.813 0.813 1.688 1.375 2.625 1.813 0.313 0.125 0.813 0.25 1.375 0.375 0.375 0.063 0.5 0.313 0.5 0.625 0 0.875-1.25 1.438-3.875 1.875-0.063 0.125-0.188 0.375-0.188 0.688-0.063 0.313-0.125 0.625-0.25 0.813-0.125 0.25-0.313 0.313-0.625 0.313-0.25 0-0.563 0-1.063-0.063-0.5-0.125-0.938-0.125-1.188-0.125-0.438 0-0.813 0-1.063 0.063-0.438 0.063-0.813 0.188-1.125 0.438-0.375 0.188-0.75 0.438-1.063 0.625-0.313 0.25-0.688 0.5-1.063 0.75-0.313 0.25-0.813 0.438-1.313 0.625-0.563 0.125-1.125 0.188-1.813 0.188-0.563 0-1.188-0.063-1.688-0.188-0.563-0.188-1-0.375-1.375-0.625-0.313-0.25-0.688-0.5-1-0.75-0.313-0.188-0.688-0.438-1.063-0.625-0.313-0.25-0.688-0.375-1.063-0.438-0.313-0.063-0.688-0.063-1.125-0.063-0.313 0-0.688 0-1.188 0.125-0.5 0.063-0.813 0.125-1.063 0.125s-0.5-0.125-0.625-0.313c-0.125-0.25-0.188-0.5-0.25-0.875 0-0.313-0.125-0.563-0.188-0.688-2.625-0.438-3.875-1-3.875-1.875 0-0.313 0.125-0.563 0.5-0.625 0.563-0.125 1.063-0.25 1.375-0.375 0.938-0.375 1.813-1 2.625-1.813 0.75-0.813 1.375-1.75 1.813-2.688 0.125-0.313 0.188-0.563 0.188-0.75 0-0.375-0.188-0.625-0.563-0.875s-0.75-0.375-1.188-0.5c-0.5-0.125-0.875-0.313-1.25-0.563s-0.563-0.563-0.563-0.938c0-0.313 0.125-0.625 0.438-0.813 0.313-0.25 0.625-0.375 1-0.375 0.188 0 0.438 0.125 0.875 0.25 0.375 0.188 0.688 0.25 0.938 0.25 0.188 0 0.375-0.063 0.563-0.125-0.125-1.688-0.188-2.813-0.188-3.375 0-1.5 0.188-2.563 0.5-3.25 0.75-1.625 1.813-2.813 3.063-3.5 1.313-0.75 2.875-1.125 4.75-1.125z"></path>
</symbol>
<symbol id="vimeo" viewBox="0 0 32 32">
<path d="M30.5 9.25c-0.125 2.813-2.063 6.688-5.938 11.625-3.938 5.125-7.313 7.688-10 7.688-1.688 0-3.125-1.563-4.313-4.688-0.5-1.875-1.313-4.75-2.313-8.625-0.875-3.125-1.813-4.688-2.813-4.688-0.25 0-1 0.5-2.313 1.375l-1.375-1.75c0.313-0.25 0.938-0.813 1.938-1.688 1-0.938 1.813-1.625 2.313-2.063 1.875-1.688 3.313-2.563 4.313-2.625 1.125-0.125 2.063 0.188 2.75 1 0.688 0.75 1.188 1.938 1.438 3.625 0.563 3.438 0.938 5.625 1.188 6.625 0.625 3 1.375 4.5 2.125 4.5 0.625 0 1.563-1 2.75-2.875 1.25-1.938 1.875-3.438 1.938-4.438 0.188-1.625-0.438-2.438-1.938-2.438-0.688 0-1.375 0.125-2.125 0.438 1.438-4.688 4.125-6.938 8.188-6.813 3 0.063 4.375 2 4.188 5.813z"></path>
</symbol>
<symbol id="map" viewBox="0 0 32 32">
<path d="M9.125 0c0.188 0 0.313 0.063 0.438 0.188s0.125 0.25 0.125 0.375v26.313c0 0.25-0.063 0.375-0.25 0.5l-8.625 4.563c-0.063 0.063-0.125 0.063-0.25 0.063s-0.25-0.063-0.375-0.188c-0.125-0.125-0.188-0.25-0.188-0.375v-26.313c0-0.25 0.125-0.375 0.313-0.5l8.563-4.563c0.063-0.063 0.188-0.063 0.25-0.063zM31.438 0c0.125 0 0.25 0.063 0.375 0.188s0.188 0.25 0.188 0.375v26.313c0 0.25-0.125 0.375-0.313 0.5l-8.563 4.563c-0.063 0.063-0.188 0.063-0.25 0.063-0.188 0-0.313-0.063-0.438-0.188s-0.125-0.25-0.125-0.375v-26.313c0-0.25 0.063-0.375 0.25-0.5l8.625-4.563c0.063-0.063 0.125-0.063 0.25-0.063zM11.438 0c0.063 0 0.188 0 0.25 0.063l9.125 4.563c0.25 0.125 0.313 0.313 0.313 0.5v26.313c0 0.125-0.063 0.25-0.125 0.375-0.125 0.125-0.25 0.188-0.438 0.188-0.063 0-0.188 0-0.25-0.063l-9.125-4.563c-0.25-0.125-0.313-0.313-0.313-0.5v-26.313c0-0.125 0.063-0.25 0.125-0.375 0.125-0.125 0.25-0.188 0.438-0.188z"></path>
</symbol>
<symbol id="location" viewBox="0 0 32 32">
<path d="M27.438 27.438c0 0.75-0.375 1.438-1.125 2-0.688 0.625-1.688 1.125-2.938 1.438-1.188 0.375-2.563 0.688-4 0.875s-2.938 0.25-4.5 0.25c-1.563 0-3.063-0.063-4.563-0.25-1.438-0.188-2.75-0.5-4-0.875-1.25-0.313-2.188-0.813-2.938-1.438-0.75-0.563-1.063-1.25-1.063-2 0-0.563 0.188-1.125 0.563-1.563 0.375-0.5 0.938-0.875 1.625-1.188 0.688-0.375 1.375-0.625 2.125-0.813 0.688-0.188 1.5-0.375 2.313-0.563 0.313-0.063 0.625 0 0.875 0.188s0.438 0.438 0.438 0.75c0.063 0.313 0 0.625-0.188 0.875s-0.438 0.438-0.75 0.438c-0.688 0.125-1.313 0.313-1.875 0.438-0.563 0.188-1 0.313-1.375 0.438-0.313 0.188-0.625 0.313-0.875 0.438-0.188 0.125-0.375 0.25-0.438 0.375-0.125 0.063-0.188 0.125-0.188 0.188 0.063 0.125 0.188 0.313 0.5 0.5 0.25 0.188 0.688 0.375 1.313 0.563 0.563 0.188 1.25 0.438 2 0.563 0.813 0.188 1.75 0.375 2.875 0.5 1.125 0.063 2.375 0.125 3.625 0.125s2.438-0.063 3.563-0.125c1.125-0.125 2.125-0.313 2.875-0.5 0.813-0.125 1.438-0.375 2.063-0.563 0.563-0.188 1-0.438 1.313-0.625 0.25-0.188 0.438-0.313 0.438-0.438 0-0.063-0.063-0.125-0.125-0.25-0.125-0.063-0.25-0.188-0.5-0.313s-0.5-0.313-0.875-0.438c-0.313-0.125-0.813-0.25-1.375-0.438-0.563-0.125-1.188-0.313-1.875-0.438-0.313 0-0.563-0.188-0.75-0.438s-0.25-0.563-0.188-0.875c0.063-0.313 0.188-0.563 0.5-0.75 0.25-0.188 0.5-0.25 0.813-0.188 0.875 0.188 1.625 0.375 2.375 0.563 0.688 0.188 1.375 0.438 2.063 0.813 0.688 0.313 1.25 0.688 1.625 1.188 0.438 0.438 0.625 1 0.625 1.563zM20.563 11.438v6.875c0 0.313-0.125 0.563-0.313 0.75-0.25 0.25-0.5 0.375-0.813 0.375h-1.125v6.875c0 0.313-0.125 0.563-0.375 0.75-0.188 0.25-0.5 0.375-0.813 0.375h-4.563c-0.313 0-0.563-0.125-0.813-0.375-0.188-0.188-0.313-0.438-0.313-0.75v-6.875h-1.125c-0.313 0-0.625-0.125-0.813-0.375-0.25-0.188-0.375-0.438-0.375-0.75v-6.875c0-0.625 0.25-1.188 0.688-1.625s1-0.688 1.625-0.688h6.875c0.625 0 1.125 0.25 1.563 0.688 0.5 0.438 0.688 1 0.688 1.625zM18.875 4.563c0 1.125-0.438 2.063-1.188 2.813-0.75 0.813-1.75 1.188-2.813 1.188-1.125 0-2.063-0.375-2.875-1.188-0.75-0.75-1.125-1.688-1.125-2.813s0.375-2.063 1.125-2.813c0.813-0.813 1.75-1.188 2.875-1.188 1.063 0 2.063 0.375 2.813 1.188 0.75 0.75 1.188 1.688 1.188 2.813z"></path>
</symbol>
<symbol id="atsign" viewBox="0 0 32 32">
<path d="M19.625 13.813c0-1.25-0.313-2.25-0.938-3-0.625-0.688-1.5-1.063-2.625-1.063-0.75 0-1.5 0.188-2.25 0.5-0.688 0.375-1.375 0.875-1.938 1.563-0.563 0.625-1.063 1.438-1.438 2.438s-0.5 2.063-0.5 3.188c0 1.313 0.313 2.375 0.938 3.125 0.625 0.688 1.5 1.063 2.688 1.063 1.125 0 2.188-0.375 3.125-1.188s1.688-1.75 2.188-2.938c0.5-1.188 0.75-2.438 0.75-3.688zM29.688 16c0 1.313-0.188 2.5-0.625 3.5-0.438 1.063-1.063 1.875-1.75 2.438-0.75 0.563-1.563 1-2.375 1.313s-1.688 0.5-2.563 0.5c-0.063 0-0.188 0-0.313 0s-0.188 0-0.25 0c-1.188 0-2-0.313-2.563-0.938-0.313-0.375-0.5-0.875-0.563-1.5-0.625 0.813-1.438 1.438-2.375 2-0.938 0.5-2 0.75-3.125 0.75-1.875 0-3.375-0.563-4.438-1.688s-1.563-2.75-1.563-4.813c0-1.875 0.375-3.563 1.188-5.188 0.75-1.563 1.813-2.813 3.188-3.75 1.313-0.938 2.813-1.375 4.375-1.375 1.063 0 1.938 0.188 2.75 0.625s1.438 1 1.938 1.813v-0.375l0.188-1c0.063-0.063 0.063-0.125 0.125-0.188s0.125-0.125 0.188-0.125h2.063c0.063 0 0.188 0.063 0.25 0.188 0.063 0.063 0.063 0.188 0.063 0.313l-2.125 10.938c-0.063 0.313-0.125 0.563-0.125 0.875 0 0.438 0.063 0.75 0.25 0.938 0.125 0.125 0.375 0.188 0.813 0.188 0.313 0 0.625 0 1-0.063 0.313-0.063 0.75-0.188 1.313-0.438 0.5-0.25 0.938-0.5 1.375-0.875 0.375-0.375 0.688-0.938 1-1.625s0.438-1.5 0.438-2.438c0-3.5-1.063-6.25-3.125-8.313s-4.813-3.125-8.313-3.125c-1.563 0-3 0.313-4.438 0.938-1.438 0.563-2.625 1.375-3.625 2.438-1.063 1-1.875 2.188-2.438 3.625-0.625 1.438-0.938 2.875-0.938 4.438s0.313 3 0.938 4.438c0.563 1.438 1.375 2.625 2.438 3.625 1 1.063 2.188 1.875 3.625 2.438 1.438 0.625 2.875 0.938 4.438 0.938 2.688 0 5.125-0.875 7.25-2.563 0.125-0.125 0.25-0.188 0.438-0.188 0.125 0.063 0.25 0.125 0.375 0.25l0.688 0.875c0.125 0.125 0.125 0.25 0.125 0.438 0 0.125-0.063 0.25-0.188 0.375-1.25 1-2.563 1.75-4.063 2.313-1.5 0.5-3.063 0.75-4.625 0.75-1.875 0-3.625-0.313-5.313-1.063s-3.188-1.688-4.375-2.938c-1.25-1.188-2.188-2.688-2.938-4.375s-1.063-3.438-1.063-5.313c0-1.875 0.313-3.625 1.063-5.313s1.688-3.188 2.938-4.375c1.188-1.25 2.688-2.188 4.375-2.938s3.438-1.063 5.313-1.063c4.125 0 7.375 1.25 9.938 3.75 2.5 2.563 3.75 5.813 3.75 9.938z"></path>
</symbol>
<symbol id="drupal" viewBox="0 0 32 32">
<path d="M23.125 28.313c-0.063-0.188-0.188-0.25-0.438-0.063-0.375 0.25-0.875 0.5-1.563 0.688s-1.438 0.313-2.313 0.313c-1.563 0-2.688-0.313-3.438-0.875-0.063-0.063-0.125-0.063-0.25-0.063s-0.313 0.063-0.438 0.188c-0.125 0.063-0.125 0.188-0.188 0.313 0 0.063 0.063 0.188 0.188 0.313 0.375 0.375 0.875 0.688 1.563 0.813 0.625 0.188 1.25 0.25 1.813 0.25s1.188-0.063 1.75-0.063c0.5-0.063 1-0.188 1.5-0.375 0.563-0.188 0.938-0.375 1.188-0.563 0.25-0.125 0.438-0.25 0.5-0.375 0.125-0.125 0.188-0.313 0.125-0.5zM22.438 26.25c-0.25-0.563-0.438-0.875-0.688-1.063-0.313-0.188-0.75-0.25-1.375-0.25-0.563 0-1 0.063-1.25 0.125-0.375 0.188-0.813 0.5-1.438 1-0.313 0.313-0.375 0.563-0.188 0.813 0.125 0.125 0.188 0.125 0.313 0.063 0.125 0 0.313-0.188 0.563-0.375 0.063-0.063 0.125-0.125 0.188-0.188s0.125-0.125 0.188-0.125c0.063-0.063 0.125-0.063 0.188-0.125s0.125-0.125 0.188-0.125c0.063-0.063 0.125-0.063 0.25-0.125 0.063 0 0.188-0.063 0.25-0.063s0.188-0.063 0.313-0.063c0.125 0 0.188 0 0.375 0 0.313 0 0.563 0.063 0.75 0.125 0.25 0.125 0.375 0.188 0.438 0.25 0.063 0.125 0.125 0.25 0.25 0.438s0.188 0.313 0.188 0.313c0.063 0.063 0.125 0.063 0.25 0 0.25-0.125 0.375-0.375 0.25-0.625zM28.75 21.25c0-0.25 0-0.5-0.063-0.813-0.063-0.25-0.188-0.5-0.313-0.813-0.125-0.25-0.313-0.438-0.625-0.625-0.25-0.188-0.563-0.25-0.938-0.25s-0.938 0.25-1.688 0.75c-0.75 0.5-1.563 1-2.313 1.5-0.813 0.5-1.375 0.75-1.813 0.75-0.313 0-0.688-0.125-1.125-0.375s-0.875-0.5-1.375-0.875c-0.438-0.313-0.938-0.688-1.5-1-0.5-0.375-1.125-0.625-1.75-0.875-0.688-0.25-1.375-0.375-2-0.375-1.375 0-2.563 0.5-3.5 1.438-1 0.875-1.5 1.938-1.5 3.188-0.063 1.313 0.375 2.313 1.313 2.938 0.313 0.188 0.688 0.375 1.125 0.5 0.375 0.063 1 0.125 1.813 0.125 0.688 0 1.5-0.188 2.375-0.563s1.688-0.813 2.375-1.25c0.75-0.5 1.438-0.875 2.188-1.313 0.688-0.375 1.25-0.563 1.625-0.5 0.313 0 0.688 0.188 1.188 0.563 0.438 0.313 0.875 0.75 1.25 1.188s0.813 0.813 1.25 1.188c0.375 0.375 0.75 0.563 0.938 0.563 0.438 0.063 0.813-0.063 1.063-0.25 0.313-0.188 0.625-0.563 1-1.125 0.313-0.5 0.563-1.063 0.75-1.813 0.188-0.688 0.25-1.313 0.25-1.875zM29.688 18.375c0 2-0.313 3.813-1.063 5.438-0.75 1.688-1.75 3.125-3 4.25s-2.688 2-4.313 2.625c-1.625 0.688-3.375 1-5.188 1s-3.563-0.375-5.25-1.063c-1.688-0.688-3.125-1.563-4.375-2.75-1.313-1.188-2.313-2.625-3.063-4.313s-1.125-3.5-1.125-5.438c0-1.063 0.063-2.063 0.313-3.063s0.563-1.875 0.875-2.625c0.375-0.688 0.75-1.438 1.25-2.063 0.5-0.688 1-1.25 1.438-1.688s0.875-0.875 1.375-1.25c0.5-0.375 0.875-0.688 1.188-0.813 0.25-0.188 0.5-0.375 0.75-0.438 0.125-0.125 0.438-0.25 0.875-0.5s0.813-0.375 1-0.5c0.188-0.125 0.5-0.313 0.875-0.563 0.313-0.25 0.688-0.5 1.063-0.75 0.438-0.375 0.75-0.813 1-1.313 0.313-0.5 0.438-1.25 0.563-2.25 1.563 1.875 2.625 3 3.313 3.438 0.563 0.375 1.313 0.75 2.313 1.25 1.063 0.438 1.813 0.813 2.313 1.188 0.25 0.125 0.5 0.25 0.688 0.438 0.25 0.125 0.563 0.375 1.125 0.813 0.5 0.438 0.938 0.813 1.313 1.25 0.438 0.438 0.875 1 1.375 1.688 0.5 0.75 0.875 1.438 1.188 2.188 0.375 0.75 0.625 1.625 0.875 2.688 0.25 1 0.313 2.063 0.313 3.125z"></path>
</symbol>
<symbol id="wheelchair" viewBox="0 0 32 32">
<path d="M19.438 21.188l1.813 3.625c-0.688 2.188-1.938 3.875-3.75 5.188s-3.875 2-6.063 2c-1.875 0-3.563-0.438-5.188-1.375-1.563-0.938-2.813-2.188-3.75-3.75-0.875-1.563-1.375-3.313-1.375-5.188 0-2.125 0.625-4.063 1.875-5.875 1.25-1.75 2.875-3 4.938-3.75l0.25 2.313c-1.438 0.688-2.563 1.625-3.438 3-0.875 1.313-1.313 2.75-1.313 4.313 0 2.25 0.75 4.125 2.313 5.688s3.5 2.313 5.688 2.313c1.5 0 2.875-0.375 4.125-1.125 1.313-0.813 2.25-1.813 2.938-3.125 0.75-1.313 1-2.75 0.938-4.25zM29.188 23l1.063 2-4.563 2.313c-0.188 0.063-0.375 0.125-0.563 0.125-0.438 0-0.813-0.188-1-0.625l-4.25-8.5h-8.438c-0.313 0-0.563-0.125-0.75-0.313-0.25-0.188-0.375-0.438-0.375-0.75l-1.75-13.875c0-0.25 0-0.5 0.125-0.75 0.188-0.625 0.5-1.125 1-1.5s1.125-0.563 1.75-0.563c0.75 0 1.438 0.313 2 0.875s0.875 1.188 0.875 2c0 0.813-0.313 1.5-0.938 2.063-0.625 0.625-1.375 0.875-2.188 0.75l0.688 5.188h7.563v2.25h-7.25l0.25 2.313h8.125c0.5 0 0.813 0.188 1 0.625l4.125 8.125z"></path>
</symbol>
<symbol id="graduation" viewBox="0 0 32 32">
<path d="M24.625 15.188l0.25 4.375c0.063 0.625-0.313 1.25-1.125 1.75-0.813 0.563-1.875 1-3.25 1.313s-2.875 0.5-4.5 0.5c-1.625 0-3.125-0.188-4.5-0.5s-2.438-0.75-3.25-1.313c-0.813-0.5-1.188-1.125-1.125-1.75l0.25-4.375 7.938 2.5c0.25 0.063 0.438 0.063 0.688 0.063s0.438 0 0.688-0.063zM32 10.688c0 0.188-0.125 0.313-0.313 0.438l-15.563 4.875c0 0-0.063 0-0.125 0s-0.125 0-0.125 0l-9.063-2.875c-0.375 0.313-0.75 0.813-1 1.563-0.25 0.688-0.438 1.5-0.438 2.438 0.563 0.375 0.875 0.875 0.875 1.563 0 0.625-0.313 1.125-0.813 1.438l0.813 6.063c0 0.125-0.063 0.25-0.125 0.313-0.125 0.125-0.188 0.188-0.375 0.188h-2.625c-0.125 0-0.25-0.063-0.375-0.188-0.063-0.063-0.125-0.188-0.063-0.313l0.813-6.063c-0.563-0.313-0.813-0.813-0.813-1.438 0-0.688 0.25-1.188 0.875-1.563 0.125-1.938 0.563-3.438 1.375-4.563l-4.625-1.438c-0.188-0.125-0.313-0.25-0.313-0.438 0-0.25 0.125-0.375 0.313-0.438l15.563-4.875c0-0.063 0.063-0.063 0.125-0.063s0.125 0 0.125 0.063l15.563 4.875c0.188 0.063 0.313 0.188 0.313 0.438z"></path>
</symbol>
<symbol id="youtube" viewBox="0 0 32 32">
<path d="M12.688 20.125l8.625-4.438-8.625-4.5zM16 4.75c2 0 3.938 0 5.813 0.063s3.188 0.125 4.063 0.188l1.313 0.063c0 0 0.125 0 0.313 0.063 0.188 0 0.313 0 0.438 0 0.063 0.063 0.188 0.063 0.375 0.125 0.188 0 0.375 0.063 0.5 0.125 0.188 0.063 0.313 0.125 0.5 0.25 0.188 0.063 0.375 0.188 0.563 0.313s0.375 0.313 0.563 0.5c0.063 0.063 0.125 0.188 0.25 0.313 0.125 0.188 0.313 0.5 0.5 1.063 0.25 0.563 0.438 1.125 0.5 1.813 0.063 0.75 0.188 1.563 0.188 2.438 0.063 0.875 0.125 1.5 0.125 2v3.125c0 1.75-0.125 3.5-0.313 5.188-0.063 0.688-0.25 1.25-0.438 1.813-0.25 0.5-0.438 0.875-0.563 1.063l-0.25 0.313c-0.188 0.188-0.375 0.375-0.563 0.5s-0.375 0.25-0.563 0.313c-0.188 0.125-0.313 0.188-0.5 0.25-0.125 0.063-0.313 0.063-0.5 0.125s-0.313 0.063-0.438 0.063c-0.063 0.063-0.188 0.063-0.375 0.063s-0.313 0.063-0.313 0.063c-3 0.188-6.688 0.313-11.188 0.313-2.438 0-4.625-0.063-6.438-0.125s-3-0.063-3.563-0.125l-0.875-0.063-0.625-0.063c-0.438-0.063-0.75-0.125-1-0.188-0.188-0.063-0.5-0.188-0.875-0.375-0.438-0.188-0.75-0.438-1.063-0.75-0.063-0.063-0.125-0.188-0.25-0.313-0.125-0.188-0.313-0.5-0.5-1.063-0.25-0.563-0.438-1.125-0.5-1.813-0.063-0.75-0.188-1.563-0.188-2.438-0.063-0.875-0.125-1.5-0.125-2v-3.125c0-1.75 0.125-3.5 0.313-5.188 0.063-0.688 0.25-1.25 0.438-1.813 0.25-0.5 0.438-0.875 0.563-1.063l0.25-0.313c0.188-0.188 0.375-0.375 0.563-0.5s0.375-0.25 0.563-0.313c0.188-0.125 0.313-0.188 0.5-0.25 0.125-0.063 0.313-0.125 0.5-0.125 0.188-0.063 0.313-0.063 0.375-0.125 0.125 0 0.25 0 0.438 0 0.188-0.063 0.313-0.063 0.313-0.063 3-0.188 6.688-0.313 11.188-0.313z"></path>
</symbol>
<symbol id="longarrow-left" viewBox="0 0 32 32">
<path d="M32 14.313v3.375c0 0.188-0.063 0.313-0.188 0.438-0.063 0.125-0.188 0.188-0.375 0.188h-22.313v4c0 0.25-0.125 0.375-0.313 0.5-0.25 0.063-0.438 0.063-0.625-0.125l-6.875-6.25c-0.125-0.063-0.188-0.25-0.188-0.375 0-0.188 0.063-0.313 0.188-0.438l6.875-6.313c0.188-0.188 0.375-0.188 0.625-0.125 0.188 0.125 0.313 0.313 0.313 0.5v4h22.313c0.188 0 0.313 0.063 0.375 0.188 0.125 0.125 0.188 0.25 0.188 0.438z"></path>
</symbol>
<symbol id="longarrow-right-1" viewBox="0 0 32 32">
<path d="M30.875 15.938c0 0.188-0.063 0.313-0.188 0.438l-6.875 6.313c-0.188 0.188-0.375 0.188-0.625 0.125-0.188-0.125-0.313-0.313-0.313-0.5v-4h-22.313c-0.188 0-0.313-0.063-0.375-0.188-0.125-0.125-0.188-0.25-0.188-0.438v-3.375c0-0.188 0.063-0.313 0.188-0.438 0.063-0.125 0.188-0.188 0.375-0.188h22.313v-4c0-0.25 0.125-0.375 0.313-0.5 0.25-0.063 0.438-0.063 0.625 0.125l6.875 6.25c0.125 0.063 0.188 0.25 0.188 0.375z"></path>
</symbol>
<symbol id="document-full" viewBox="0 0 32 32">
<path d="M20.563 9.125v-8.438c0.25 0.188 0.5 0.375 0.625 0.5l7.313 7.313c0.188 0.188 0.313 0.375 0.5 0.625zM18.313 9.688c0 0.5 0.125 0.938 0.5 1.25 0.313 0.313 0.688 0.5 1.188 0.5h9.688v18.875c0 0.438-0.125 0.875-0.5 1.188-0.313 0.313-0.688 0.5-1.188 0.5h-24c-0.5 0-0.875-0.188-1.188-0.5-0.375-0.313-0.5-0.75-0.5-1.188v-28.625c0-0.438 0.125-0.875 0.5-1.188 0.313-0.313 0.688-0.5 1.188-0.5h14.313z"></path>
</symbol>
<symbol id="outbound-link-full" viewBox="0 0 32 32">
<path d="M25.125 16.563v-8.563c0-0.313-0.125-0.563-0.313-0.813-0.25-0.188-0.5-0.313-0.813-0.313h-8.563c-0.5 0-0.875 0.188-1.063 0.688s-0.125 0.875 0.25 1.25l2.563 2.563-9.5 9.563c-0.25 0.188-0.375 0.438-0.375 0.75s0.125 0.625 0.375 0.813l1.813 1.813c0.188 0.25 0.5 0.375 0.813 0.375s0.563-0.125 0.75-0.375l9.563-9.5 2.563 2.563c0.25 0.25 0.5 0.313 0.813 0.313 0.125 0 0.313 0 0.438-0.063 0.5-0.188 0.688-0.563 0.688-1.063zM29.688 7.438v17.125c0 1.438-0.5 2.625-1.5 3.625s-2.188 1.5-3.625 1.5h-17.125c-1.438 0-2.625-0.5-3.625-1.5s-1.5-2.188-1.5-3.625v-17.125c0-1.438 0.5-2.625 1.5-3.625s2.188-1.5 3.625-1.5h17.125c1.438 0 2.625 0.5 3.625 1.5s1.5 2.188 1.5 3.625z"></path>
</symbol>
<symbol id="arrow-up-circled" viewBox="0 0 32 32">
<path d="M23.063 20.313l1.875-1.813c0.188-0.188 0.313-0.5 0.313-0.813s-0.125-0.563-0.313-0.75l-8.125-8.125c-0.25-0.25-0.5-0.375-0.813-0.375s-0.563 0.125-0.813 0.375l-8.125 8.125c-0.188 0.188-0.313 0.438-0.313 0.75s0.125 0.625 0.313 0.813l1.875 1.813c0.188 0.25 0.438 0.375 0.75 0.375s0.625-0.125 0.813-0.375l5.5-5.438 5.5 5.438c0.188 0.25 0.5 0.375 0.813 0.375s0.563-0.125 0.75-0.375zM29.688 16c0 2.5-0.563 4.813-1.813 6.875-1.25 2.125-2.875 3.75-5 5-2.063 1.25-4.375 1.813-6.875 1.813s-4.813-0.563-6.875-1.813c-2.125-1.25-3.75-2.875-5-5-1.25-2.063-1.813-4.375-1.813-6.875s0.563-4.813 1.813-6.875c1.25-2.125 2.875-3.75 5-5 2.063-1.25 4.375-1.813 6.875-1.813s4.813 0.563 6.875 1.813c2.125 1.25 3.75 2.875 5 5 1.25 2.063 1.813 4.375 1.813 6.875z"></path>
</symbol>
<symbol id="arrow-down-circled" viewBox="0 0 32 32">
<path d="M16.813 23.188l8.125-8.125c0.188-0.188 0.313-0.438 0.313-0.75s-0.125-0.625-0.313-0.813l-1.875-1.813c-0.188-0.25-0.438-0.375-0.75-0.375s-0.625 0.125-0.813 0.375l-5.5 5.438-5.5-5.438c-0.188-0.25-0.5-0.375-0.813-0.375s-0.563 0.125-0.75 0.375l-1.875 1.813c-0.188 0.188-0.313 0.5-0.313 0.813s0.125 0.563 0.313 0.75l8.125 8.125c0.25 0.25 0.5 0.375 0.813 0.375s0.563-0.125 0.813-0.375zM29.688 16c0 2.5-0.563 4.813-1.813 6.875-1.25 2.125-2.875 3.75-5 5-2.063 1.25-4.375 1.813-6.875 1.813s-4.813-0.563-6.875-1.813c-2.125-1.25-3.75-2.875-5-5-1.25-2.063-1.813-4.375-1.813-6.875s0.563-4.813 1.813-6.875c1.25-2.125 2.875-3.75 5-5 2.063-1.25 4.375-1.813 6.875-1.813s4.813 0.563 6.875 1.813c2.125 1.25 3.75 2.875 5 5 1.25 2.063 1.813 4.375 1.813 6.875z"></path>
</symbol>
<symbol id="triangled-right-circled" viewBox="0 0 32 32">
<path d="M16 2.313c2.5 0 4.813 0.563 6.875 1.813 2.125 1.25 3.75 2.875 5 5 1.25 2.063 1.813 4.375 1.813 6.875s-0.563 4.813-1.813 6.875c-1.25 2.125-2.875 3.75-5 5-2.063 1.25-4.375 1.813-6.875 1.813s-4.813-0.563-6.875-1.813c-2.125-1.25-3.75-2.875-5-5-1.25-2.063-1.813-4.375-1.813-6.875s0.563-4.813 1.813-6.875c1.25-2.125 2.875-3.75 5-5 2.063-1.25 4.375-1.813 6.875-1.813zM22.875 17c0.375-0.25 0.563-0.563 0.563-1s-0.188-0.75-0.563-1l-9.75-5.688c-0.375-0.25-0.75-0.25-1.125 0-0.375 0.188-0.563 0.563-0.563 1v11.375c0 0.438 0.188 0.813 0.563 1 0.188 0.125 0.375 0.188 0.563 0.188s0.375-0.063 0.563-0.188z"></path>
</symbol>
<symbol id="calendar" viewBox="0 0 32 32">
<path d="M3.438 29.688h25.125v-18.25h-25.125zM10.313 8v-5.125c0-0.188-0.063-0.313-0.188-0.438s-0.25-0.125-0.438-0.125h-1.125c-0.188 0-0.313 0-0.375 0.125-0.125 0.125-0.188 0.25-0.188 0.438v5.125c0 0.188 0.063 0.313 0.188 0.438 0.063 0.063 0.188 0.125 0.375 0.125h1.125c0.188 0 0.313-0.063 0.438-0.125 0.125-0.125 0.188-0.25 0.188-0.438zM24 8v-5.125c0-0.188-0.063-0.313-0.188-0.438-0.063-0.125-0.188-0.125-0.375-0.125h-1.125c-0.188 0-0.313 0-0.438 0.125s-0.188 0.25-0.188 0.438v5.125c0 0.188 0.063 0.313 0.188 0.438 0.125 0.063 0.25 0.125 0.438 0.125h1.125c0.188 0 0.313-0.063 0.375-0.125 0.125-0.125 0.188-0.25 0.188-0.438zM30.875 6.875v22.813c0 0.625-0.25 1.188-0.688 1.625s-1 0.688-1.625 0.688h-25.125c-0.625 0-1.188-0.25-1.625-0.688s-0.688-1-0.688-1.625v-22.813c0-0.625 0.25-1.188 0.688-1.625s1-0.688 1.625-0.688h2.25v-1.688c0-0.813 0.313-1.5 0.875-2.063s1.25-0.813 2-0.813h1.125c0.813 0 1.5 0.25 2.063 0.813s0.813 1.25 0.813 2.063v1.688h6.875v-1.688c0-0.813 0.25-1.5 0.813-2.063s1.25-0.813 2.063-0.813h1.125c0.75 0 1.438 0.25 2 0.813s0.875 1.25 0.875 2.063v1.688h2.25c0.625 0 1.188 0.25 1.625 0.688s0.688 1 0.688 1.625z"></path>
</symbol>
<symbol id="documents" viewBox="0 0 32 32">
<path d="M13.688 29.688h16v-11.375h-7.375c-0.5 0-0.938-0.188-1.25-0.5-0.313-0.375-0.5-0.75-0.5-1.25v-7.438h-6.875zM18.313 4v-1.125c0-0.188-0.063-0.313-0.188-0.438s-0.25-0.125-0.438-0.125h-12.563c-0.125 0-0.25 0-0.375 0.125s-0.188 0.25-0.188 0.438v1.125c0 0.125 0.063 0.313 0.188 0.375 0.125 0.125 0.25 0.188 0.375 0.188h12.563c0.188 0 0.313-0.063 0.438-0.188 0.125-0.063 0.188-0.25 0.188-0.375zM22.875 16h5.313l-5.313-5.313zM32 18.313v12c0 0.438-0.188 0.875-0.5 1.188s-0.75 0.5-1.188 0.5h-17.188c-0.438 0-0.875-0.188-1.188-0.5s-0.5-0.75-0.5-1.188v-2.875h-9.75c-0.438 0-0.875-0.188-1.188-0.5s-0.5-0.75-0.5-1.25v-24c0-0.438 0.188-0.875 0.5-1.188s0.75-0.5 1.188-0.5h19.438c0.5 0 0.875 0.188 1.25 0.5 0.313 0.313 0.5 0.75 0.5 1.188v5.875c0.25 0.188 0.438 0.313 0.625 0.5l7.313 7.313c0.313 0.313 0.563 0.75 0.813 1.313 0.25 0.625 0.375 1.125 0.375 1.625z"></path>
</symbol>
<symbol id="document-lines" viewBox="0 0 32 32">
<path d="M28.5 6.813c0.313 0.313 0.625 0.75 0.875 1.313s0.313 1.125 0.313 1.563v20.625c0 0.438-0.125 0.875-0.5 1.188-0.313 0.313-0.688 0.5-1.188 0.5h-24c-0.5 0-0.875-0.188-1.188-0.5-0.375-0.313-0.5-0.75-0.5-1.188v-28.625c0-0.438 0.125-0.875 0.5-1.188 0.313-0.313 0.688-0.5 1.188-0.5h16c0.5 0 1 0.125 1.563 0.375s1.063 0.5 1.375 0.813zM20.563 2.438v6.688h6.75c-0.125-0.313-0.25-0.563-0.438-0.688l-5.563-5.625c-0.125-0.125-0.375-0.25-0.75-0.375zM27.438 29.688v-18.25h-7.438c-0.5 0-0.875-0.188-1.188-0.5-0.375-0.313-0.5-0.75-0.5-1.25v-7.375h-13.75v27.375zM9.125 14.313c0-0.188 0.063-0.313 0.188-0.438s0.25-0.188 0.375-0.188h12.625c0.125 0 0.25 0.063 0.375 0.188s0.188 0.25 0.188 0.438v1.125c0 0.188-0.063 0.313-0.188 0.375-0.125 0.125-0.25 0.188-0.375 0.188h-12.625c-0.125 0-0.25-0.063-0.375-0.188-0.125-0.063-0.188-0.188-0.188-0.375zM22.313 18.313c0.125 0 0.25 0 0.375 0.125s0.188 0.25 0.188 0.438v1.125c0 0.188-0.063 0.313-0.188 0.438-0.125 0.063-0.25 0.125-0.375 0.125h-12.625c-0.125 0-0.25-0.063-0.375-0.125-0.125-0.125-0.188-0.25-0.188-0.438v-1.125c0-0.188 0.063-0.313 0.188-0.438s0.25-0.125 0.375-0.125zM22.313 22.875c0.125 0 0.25 0.063 0.375 0.125 0.125 0.125 0.188 0.25 0.188 0.438v1.125c0 0.188-0.063 0.313-0.188 0.438-0.125 0.063-0.25 0.125-0.375 0.125h-12.625c-0.125 0-0.25-0.063-0.375-0.125-0.125-0.125-0.188-0.25-0.188-0.438v-1.125c0-0.188 0.063-0.313 0.188-0.438 0.125-0.063 0.25-0.125 0.375-0.125z"></path>
</symbol>
<symbol id="linkedin" viewBox="0 0 32 32">
<path d="M8.5 11.188v17.688h-5.875v-17.688zM8.875 5.688c0 0.875-0.25 1.625-0.875 2.188s-1.438 0.875-2.438 0.875v0c-1 0-1.813-0.313-2.375-0.875-0.625-0.563-0.875-1.313-0.875-2.188s0.25-1.625 0.875-2.188c0.625-0.563 1.438-0.875 2.438-0.875s1.75 0.313 2.375 0.875c0.563 0.563 0.875 1.313 0.875 2.188zM29.688 18.688v10.188h-5.875v-9.5c0-1.25-0.188-2.188-0.688-2.938-0.5-0.688-1.25-1.063-2.25-1.063-0.75 0-1.375 0.25-1.875 0.625-0.563 0.438-0.938 0.938-1.188 1.563-0.125 0.313-0.188 0.813-0.188 1.438v9.875h-5.875c0.063-4.75 0.063-8.625 0.063-11.563s0-4.75 0-5.313l-0.063-0.813h5.875v2.563c0.25-0.375 0.438-0.75 0.688-1 0.25-0.313 0.625-0.625 1.063-0.938 0.375-0.313 0.938-0.625 1.5-0.813 0.625-0.188 1.313-0.25 2.063-0.25 2.063 0 3.688 0.688 4.938 2 1.25 1.375 1.813 3.375 1.813 5.938z"></path>
</symbol>
<symbol id="google-plus" viewBox="0 0 32 32">
<path d="M19.938 16.25c0 1.938-0.375 3.625-1.188 5.125s-1.938 2.688-3.438 3.563c-1.5 0.813-3.188 1.25-5.125 1.25-1.375 0-2.688-0.25-3.938-0.813-1.313-0.563-2.375-1.25-3.25-2.188-0.938-0.875-1.688-2-2.188-3.25-0.563-1.25-0.813-2.563-0.813-3.938s0.25-2.688 0.813-3.938c0.5-1.25 1.25-2.375 2.188-3.25 0.875-0.938 1.938-1.625 3.25-2.188 1.25-0.563 2.563-0.813 3.938-0.813 2.625 0 4.938 0.875 6.813 2.688l-2.75 2.625c-1.125-1.063-2.438-1.563-4.063-1.563-1.125 0-2.188 0.313-3.188 0.875-0.938 0.563-1.688 1.375-2.25 2.313-0.563 1-0.875 2.063-0.875 3.25s0.313 2.25 0.875 3.25c0.563 0.938 1.313 1.75 2.25 2.313 1 0.563 2.063 0.875 3.188 0.875 0.75 0 1.438-0.125 2.125-0.313 0.625-0.25 1.188-0.5 1.563-0.813 0.438-0.313 0.813-0.688 1.125-1.063 0.313-0.438 0.5-0.813 0.688-1.188 0.125-0.375 0.188-0.688 0.25-1h-5.75v-3.5h9.625c0.063 0.563 0.125 1.125 0.125 1.688zM32 14.563v2.875h-2.875v2.938h-2.938v-2.938h-2.938v-2.875h2.938v-2.938h2.938v2.938z"></path>
</symbol>
<symbol id="facebook" viewBox="0 0 32 32">
<path d="M24 0.188v4.75h-2.813c-1.063 0-1.75 0.188-2.063 0.625-0.375 0.438-0.563 1.063-0.563 1.938v3.375h5.25l-0.688 5.313h-4.563v13.5h-5.438v-13.5h-4.563v-5.313h4.563v-3.875c0-2.25 0.625-3.938 1.813-5.188 1.25-1.188 2.938-1.813 5-1.813 1.75 0 3.063 0.063 4.063 0.188z"></path>
</symbol>
<symbol id="outbound-link-line" viewBox="0 0 32 32">
<path d="M25.125 16.563v5.75c0 1.375-0.5 2.625-1.5 3.625s-2.188 1.5-3.625 1.5h-14.875c-1.375 0-2.625-0.5-3.625-1.5s-1.5-2.25-1.5-3.625v-14.875c0-1.438 0.5-2.625 1.5-3.625s2.25-1.5 3.625-1.5h12.563c0.188 0 0.313 0 0.438 0.125s0.188 0.25 0.188 0.438v1.125c0 0.188-0.063 0.313-0.188 0.438-0.125 0.063-0.25 0.125-0.438 0.125h-12.563c-0.75 0-1.438 0.313-2 0.875s-0.813 1.188-0.813 2v14.875c0 0.75 0.25 1.438 0.813 2s1.25 0.813 2 0.813h14.875c0.813 0 1.438-0.25 2-0.813s0.875-1.25 0.875-2v-5.75c0-0.188 0.063-0.313 0.125-0.375 0.125-0.125 0.25-0.188 0.438-0.188h1.125c0.188 0 0.313 0.063 0.438 0.188 0.063 0.063 0.125 0.188 0.125 0.375zM32 1.125v9.188c0 0.313-0.125 0.563-0.313 0.75-0.25 0.25-0.5 0.375-0.813 0.375s-0.625-0.125-0.813-0.375l-3.125-3.125-11.688 11.625c-0.125 0.125-0.25 0.188-0.375 0.188-0.188 0-0.313-0.063-0.438-0.188l-2-2c-0.125-0.125-0.188-0.25-0.188-0.438 0-0.125 0.063-0.25 0.188-0.375l11.625-11.688-3.125-3.125c-0.25-0.188-0.375-0.5-0.375-0.813s0.125-0.563 0.375-0.813c0.188-0.188 0.438-0.313 0.75-0.313h9.188c0.313 0 0.563 0.125 0.813 0.313 0.188 0.25 0.313 0.5 0.313 0.813z"></path>
</symbol>
<symbol id="folder-open" viewBox="0 0 32 32">
<path d="M31.313 16.938c0 0.313-0.188 0.688-0.5 1.125l-5.625 6.563c-0.438 0.563-1.125 1.063-2 1.438-0.875 0.438-1.625 0.625-2.375 0.625h-18.125c-0.375 0-0.75-0.063-1-0.25-0.313-0.125-0.5-0.375-0.5-0.688 0-0.375 0.188-0.75 0.563-1.125l5.563-6.563c0.5-0.625 1.188-1.063 2-1.5 0.875-0.375 1.688-0.563 2.438-0.563h18.125c0.375 0 0.688 0.063 1 0.188 0.313 0.188 0.438 0.438 0.438 0.75zM25.625 11.188v2.688h-13.875c-1.063 0-2.125 0.25-3.313 0.813-1.125 0.5-2.063 1.188-2.75 1.938l-5.563 6.625-0.125 0.125c0-0.063 0-0.125 0-0.25 0-0.063 0-0.125 0-0.188v-16c0-1 0.375-1.875 1.125-2.625 0.688-0.75 1.563-1.125 2.625-1.125h5.313c1 0 1.875 0.375 2.625 1.125s1.125 1.625 1.125 2.625v0.5h9.063c1 0 1.875 0.375 2.625 1.125s1.125 1.625 1.125 2.625z"></path>
</symbol>
<symbol id="arrow-up" viewBox="0 0 32 32">
<path d="M30.063 23.75l-3 2.938c-0.188 0.25-0.438 0.375-0.75 0.375s-0.625-0.125-0.813-0.375l-9.5-9.438-9.5 9.438c-0.188 0.25-0.5 0.375-0.813 0.375s-0.563-0.125-0.75-0.375l-3-2.938c-0.188-0.188-0.313-0.5-0.313-0.813s0.125-0.563 0.313-0.813l13.25-13.188c0.25-0.25 0.5-0.375 0.813-0.375s0.563 0.125 0.813 0.375l13.25 13.188c0.188 0.25 0.313 0.5 0.313 0.813s-0.125 0.625-0.313 0.813z"></path>
</symbol>
<symbol id="arrow-down" viewBox="0 0 32 32">
<path d="M30.063 14.438l-13.25 13.25c-0.25 0.188-0.5 0.313-0.813 0.313s-0.563-0.125-0.813-0.313l-13.25-13.25c-0.188-0.25-0.313-0.5-0.313-0.813s0.125-0.625 0.313-0.813l3-2.938c0.188-0.25 0.438-0.375 0.75-0.375s0.625 0.125 0.813 0.375l9.5 9.438 9.5-9.438c0.188-0.25 0.5-0.375 0.813-0.375s0.563 0.125 0.75 0.375l3 2.938c0.188 0.188 0.313 0.5 0.313 0.813s-0.125 0.563-0.313 0.813z"></path>
</symbol>
<symbol id="plus" viewBox="0 0 32 32">
<path d="M28.563 13.125v3.438c0 0.5-0.188 0.875-0.5 1.25-0.313 0.313-0.75 0.5-1.188 0.5h-7.438v7.375c0 0.5-0.188 0.938-0.5 1.25s-0.75 0.5-1.25 0.5h-3.375c-0.5 0-0.938-0.188-1.25-0.5s-0.5-0.75-0.5-1.25v-7.375h-7.438c-0.438 0-0.875-0.188-1.188-0.5-0.313-0.375-0.5-0.75-0.5-1.25v-3.438c0-0.438 0.188-0.875 0.5-1.188s0.75-0.5 1.188-0.5h7.438v-7.438c0-0.5 0.188-0.875 0.5-1.188 0.313-0.375 0.75-0.5 1.25-0.5h3.375c0.5 0 0.938 0.125 1.25 0.5 0.313 0.313 0.5 0.688 0.5 1.188v7.438h7.438c0.438 0 0.875 0.188 1.188 0.5s0.5 0.75 0.5 1.188z"></path>
</symbol>
<symbol id="minus" viewBox="0 0 32 32">
<path d="M28.563 13.125v3.438c0 0.5-0.188 0.875-0.5 1.25-0.313 0.313-0.75 0.5-1.188 0.5h-21.75c-0.438 0-0.875-0.188-1.188-0.5-0.313-0.375-0.5-0.75-0.5-1.25v-3.438c0-0.438 0.188-0.875 0.5-1.188s0.75-0.5 1.188-0.5h21.75c0.438 0 0.875 0.188 1.188 0.5s0.5 0.75 0.5 1.188z"></path>
</symbol>
<symbol id="arrow-left" viewBox="0 0 32 32">
<path d="M25.5 5.375l-9.5 9.5 9.5 9.438c0.188 0.25 0.313 0.5 0.313 0.813s-0.125 0.625-0.313 0.813l-3 3c-0.188 0.188-0.5 0.313-0.813 0.313s-0.563-0.125-0.75-0.313l-13.25-13.25c-0.25-0.25-0.375-0.5-0.375-0.813s0.125-0.625 0.375-0.813l13.25-13.25c0.188-0.25 0.438-0.375 0.75-0.375s0.625 0.125 0.813 0.375l3 2.938c0.188 0.25 0.313 0.5 0.313 0.813s-0.125 0.563-0.313 0.813z"></path>
</symbol>
<symbol id="arrow-right" viewBox="0 0 32 32">
<path d="M24.313 15.688l-13.25 13.25c-0.188 0.188-0.438 0.313-0.75 0.313s-0.625-0.125-0.813-0.313l-3-3c-0.188-0.188-0.313-0.5-0.313-0.813s0.125-0.563 0.313-0.813l9.5-9.438-9.5-9.5c-0.188-0.25-0.313-0.5-0.313-0.813s0.125-0.563 0.313-0.813l3-2.938c0.188-0.25 0.5-0.375 0.813-0.375s0.563 0.125 0.75 0.375l13.25 13.25c0.25 0.188 0.375 0.5 0.375 0.813s-0.125 0.563-0.375 0.813z"></path>
</symbol>
<symbol id="direction" viewBox="0 0 32 32">
<path d="M20.563 11.438c0-1.25-0.438-2.375-1.313-3.25-0.938-0.875-2-1.313-3.25-1.313s-2.313 0.438-3.25 1.313c-0.875 0.875-1.313 2-1.313 3.25s0.438 2.313 1.313 3.25c0.938 0.875 2 1.313 3.25 1.313s2.313-0.438 3.25-1.313c0.875-0.938 1.313-2 1.313-3.25zM25.125 11.438c0 1.313-0.188 2.375-0.563 3.188l-6.5 13.813c-0.188 0.375-0.5 0.688-0.875 0.938s-0.75 0.313-1.188 0.313c-0.438 0-0.813-0.063-1.188-0.313s-0.688-0.563-0.875-0.938l-6.5-13.813c-0.375-0.813-0.563-1.875-0.563-3.188 0-2.563 0.875-4.688 2.688-6.5 1.75-1.75 3.938-2.625 6.438-2.625s4.688 0.875 6.438 2.625c1.813 1.813 2.688 3.938 2.688 6.5z"></path>
</symbol>
<symbol id="camera" viewBox="0 0 32 32">
<path d="M16 12.25c1.313 0 2.438 0.5 3.375 1.438s1.438 2.063 1.438 3.375c0 1.313-0.5 2.438-1.438 3.375s-2.063 1.438-3.375 1.438c-1.313 0-2.438-0.5-3.375-1.438s-1.438-2.063-1.438-3.375c0-1.313 0.5-2.438 1.438-3.375s2.063-1.438 3.375-1.438zM27.75 5.313c1.188 0 2.188 0.438 3 1.25 0.813 0.875 1.25 1.875 1.25 3.063v14.938c0 1.125-0.438 2.125-1.25 3-0.813 0.813-1.813 1.25-3 1.25h-23.5c-1.188 0-2.188-0.438-3-1.25-0.813-0.875-1.25-1.875-1.25-3v-14.938c0-1.188 0.438-2.188 1.25-3.063 0.813-0.813 1.813-1.25 3-1.25h3.75l0.875-2.25c0.188-0.563 0.563-1 1.125-1.375 0.563-0.438 1.125-0.625 1.75-0.625h8.5c0.625 0 1.188 0.188 1.75 0.625 0.563 0.375 0.938 0.813 1.125 1.375l0.875 2.25zM16 24.563c2.063 0 3.813-0.75 5.25-2.25 1.5-1.438 2.188-3.188 2.188-5.25s-0.688-3.813-2.188-5.25c-1.438-1.5-3.188-2.188-5.25-2.188s-3.813 0.688-5.25 2.188c-1.5 1.438-2.188 3.188-2.188 5.25s0.688 3.813 2.188 5.25c1.438 1.5 3.188 2.25 5.25 2.25z"></path>
</symbol>
<symbol id="email-line-1" viewBox="0 0 32 32">
<path d="M29.688 26.875v-13.75c-0.375 0.438-0.75 0.813-1.188 1.188-3.188 2.438-5.75 4.5-7.625 6.063-0.625 0.5-1.125 0.875-1.5 1.188-0.375 0.25-0.875 0.563-1.5 0.875-0.688 0.25-1.313 0.438-1.875 0.438v0c-0.563 0-1.188-0.188-1.875-0.438-0.625-0.313-1.125-0.625-1.5-0.875-0.375-0.313-0.875-0.688-1.5-1.188-1.875-1.563-4.438-3.625-7.625-6.063-0.438-0.375-0.813-0.75-1.188-1.188v13.75c0 0.125 0 0.25 0.125 0.375s0.25 0.188 0.438 0.188h26.25c0.188 0 0.313-0.063 0.438-0.188s0.125-0.25 0.125-0.375zM29.688 8.063v-0.438c0 0 0-0.063 0-0.188 0-0.188 0-0.25-0.063-0.25 0 0-0.063-0.063-0.063-0.125-0.063-0.125-0.125-0.188-0.188-0.188-0.063 0.063-0.125 0.063-0.25 0h-26.25c-0.188 0-0.313 0.063-0.438 0.125-0.125 0.125-0.125 0.25-0.125 0.438 0 2 0.875 3.688 2.625 5.063 2.25 1.813 4.688 3.688 7.125 5.688 0.063 0.063 0.313 0.188 0.625 0.5 0.375 0.313 0.625 0.5 0.813 0.688 0.25 0.125 0.5 0.313 0.813 0.563 0.313 0.188 0.625 0.375 0.875 0.5 0.313 0.063 0.563 0.125 0.813 0.125v0c0.25 0 0.5-0.063 0.813-0.125 0.25-0.125 0.563-0.313 0.875-0.5 0.313-0.25 0.563-0.438 0.813-0.563 0.188-0.188 0.438-0.375 0.813-0.688 0.313-0.313 0.563-0.438 0.625-0.5 2.438-2 4.875-3.875 7.125-5.688 0.688-0.5 1.25-1.188 1.813-2.063s0.813-1.625 0.813-2.375zM32 7.438v19.438c0 0.75-0.25 1.438-0.813 2s-1.25 0.813-2.063 0.813h-26.25c-0.813 0-1.5-0.25-2.063-0.813s-0.813-1.25-0.813-2v-19.438c0-0.813 0.25-1.438 0.813-2s1.25-0.875 2.063-0.875h26.25c0.813 0 1.5 0.313 2.063 0.875s0.813 1.188 0.813 2z"></path>
</symbol>
<symbol id="search" viewBox="0 0 32 32">
<path d="M21.688 14.875c0-2.25-0.75-4.125-2.313-5.688s-3.438-2.313-5.688-2.313c-2.188 0-4.063 0.75-5.625 2.313s-2.375 3.438-2.375 5.688c0 2.188 0.813 4.063 2.375 5.625s3.438 2.375 5.625 2.375c2.25 0 4.125-0.813 5.688-2.375s2.313-3.438 2.313-5.625zM30.875 29.688c0 0.625-0.25 1.188-0.688 1.625s-1 0.688-1.625 0.688c-0.625 0-1.188-0.25-1.625-0.688l-6.125-6.125c-2.125 1.5-4.5 2.25-7.125 2.25-1.688 0-3.313-0.313-4.875-1s-2.875-1.563-4-2.688c-1.125-1.125-2-2.438-2.688-4-0.625-1.563-1-3.188-1-4.875 0-1.75 0.375-3.375 1-4.875 0.688-1.563 1.563-2.938 2.688-4.063s2.438-2 4-2.688c1.563-0.625 3.188-0.938 4.875-0.938 1.75 0 3.375 0.313 4.938 0.938 1.5 0.688 2.875 1.563 4 2.688s2 2.5 2.688 4.063c0.625 1.5 1 3.125 1 4.875 0 2.625-0.75 5-2.25 7.125l6.125 6.125c0.438 0.438 0.688 0.938 0.688 1.563z"></path>
</symbol>
<symbol id="bullet" viewBox="0 0 32 32">
<path d="M6.875 25.125c0 1-0.375 1.75-1 2.438-0.688 0.688-1.5 1-2.438 1s-1.75-0.313-2.438-1c-0.688-0.688-1-1.438-1-2.438 0-0.938 0.313-1.75 1-2.438 0.688-0.625 1.5-1 2.438-1s1.75 0.375 2.438 1c0.625 0.688 1 1.5 1 2.438zM6.875 16c0 0.938-0.375 1.75-1 2.438-0.688 0.688-1.5 1-2.438 1s-1.75-0.313-2.438-1c-0.688-0.688-1-1.5-1-2.438s0.313-1.75 1-2.438c0.688-0.688 1.5-1 2.438-1s1.75 0.313 2.438 1c0.625 0.688 1 1.5 1 2.438zM32 23.438v3.438c0 0.125-0.063 0.25-0.188 0.375s-0.25 0.188-0.375 0.188h-21.75c-0.125 0-0.25-0.063-0.375-0.188s-0.188-0.25-0.188-0.375v-3.438c0-0.188 0.063-0.313 0.188-0.438 0.125-0.063 0.25-0.125 0.375-0.125h21.75c0.125 0 0.25 0.063 0.375 0.125 0.125 0.125 0.188 0.25 0.188 0.438zM6.875 6.875c0 0.938-0.375 1.75-1 2.438-0.688 0.625-1.5 1-2.438 1s-1.75-0.375-2.438-1c-0.688-0.688-1-1.5-1-2.438 0-1 0.313-1.75 1-2.438s1.5-1 2.438-1c0.938 0 1.75 0.313 2.438 1 0.625 0.688 1 1.438 1 2.438zM32 14.313v3.375c0 0.188-0.063 0.313-0.188 0.438s-0.25 0.188-0.375 0.188h-21.75c-0.125 0-0.25-0.063-0.375-0.188s-0.188-0.25-0.188-0.438v-3.375c0-0.188 0.063-0.313 0.188-0.438s0.25-0.188 0.375-0.188h21.75c0.125 0 0.25 0.063 0.375 0.188s0.188 0.25 0.188 0.438zM32 5.125v3.438c0 0.188-0.063 0.313-0.188 0.438-0.125 0.063-0.25 0.125-0.375 0.125h-21.75c-0.125 0-0.25-0.063-0.375-0.125-0.125-0.125-0.188-0.25-0.188-0.438v-3.438c0-0.125 0.063-0.25 0.188-0.375s0.25-0.188 0.375-0.188h21.75c0.125 0 0.25 0.063 0.375 0.188s0.188 0.25 0.188 0.375z"></path>
</symbol>
<symbol id="menu" viewBox="0 0 32 32">
<path d="M29.688 24v2.313c0 0.313-0.063 0.563-0.313 0.75-0.25 0.25-0.5 0.375-0.813 0.375h-25.125c-0.313 0-0.563-0.125-0.813-0.375-0.25-0.188-0.313-0.438-0.313-0.75v-2.313c0-0.313 0.063-0.563 0.313-0.813 0.25-0.188 0.5-0.313 0.813-0.313h25.125c0.313 0 0.563 0.125 0.813 0.313 0.25 0.25 0.313 0.5 0.313 0.813zM29.688 14.875v2.25c0 0.313-0.063 0.625-0.313 0.813-0.25 0.25-0.5 0.375-0.813 0.375h-25.125c-0.313 0-0.563-0.125-0.813-0.375-0.25-0.188-0.313-0.5-0.313-0.813v-2.25c0-0.313 0.063-0.625 0.313-0.813 0.25-0.25 0.5-0.375 0.813-0.375h25.125c0.313 0 0.563 0.125 0.813 0.375 0.25 0.188 0.313 0.5 0.313 0.813zM29.688 5.688v2.313c0 0.313-0.063 0.563-0.313 0.813-0.25 0.188-0.5 0.313-0.813 0.313h-25.125c-0.313 0-0.563-0.125-0.813-0.313-0.25-0.25-0.313-0.5-0.313-0.813v-2.313c0-0.313 0.063-0.563 0.313-0.75 0.25-0.25 0.5-0.375 0.813-0.375h25.125c0.313 0 0.563 0.125 0.813 0.375 0.25 0.188 0.313 0.438 0.313 0.75z"></path>
</symbol>
<symbol id="carrot-right" viewBox="0 0 32 32">
<path d="M20.563 16c0 0.313-0.125 0.563-0.313 0.813l-8 8c-0.25 0.188-0.5 0.313-0.813 0.313s-0.563-0.125-0.813-0.313c-0.25-0.25-0.313-0.5-0.313-0.813v-16c0-0.313 0.063-0.563 0.313-0.813 0.25-0.188 0.5-0.313 0.813-0.313s0.563 0.125 0.813 0.313l8 8c0.188 0.25 0.313 0.5 0.313 0.813z"></path>
</symbol>
<symbol id="folder-open-line" viewBox="0 0 32 32">
<path d="M29.688 16.563c0-0.375-0.313-0.563-0.875-0.563h-18.125c-0.438 0-0.938 0.125-1.438 0.375s-0.938 0.5-1.188 0.875l-4.938 6.063c-0.188 0.25-0.25 0.438-0.25 0.625 0 0.375 0.25 0.625 0.875 0.625h18.125c0.438 0 0.938-0.125 1.438-0.375s0.875-0.563 1.188-0.875l4.875-6.063c0.188-0.25 0.313-0.5 0.313-0.688zM10.688 13.875h12.75v-2.688c0-0.438-0.125-0.813-0.438-1.125s-0.688-0.438-1.125-0.438h-9.625c-0.438 0-0.813-0.188-1.125-0.5s-0.438-0.688-0.438-1.125v-1.063c0-0.438-0.188-0.813-0.5-1.125s-0.688-0.5-1.125-0.5h-5.313c-0.438 0-0.813 0.188-1.125 0.5s-0.5 0.688-0.5 1.125v14.188l4.25-5.25c0.5-0.563 1.188-1.063 1.938-1.438 0.813-0.375 1.625-0.563 2.375-0.563zM31.813 16.563c0 0.688-0.25 1.375-0.75 2l-4.938 6.063c-0.5 0.625-1.125 1.063-1.938 1.438-0.813 0.438-1.563 0.625-2.313 0.625h-18.125c-1.063 0-1.938-0.375-2.625-1.125-0.75-0.75-1.125-1.625-1.125-2.625v-16c0-1 0.375-1.875 1.125-2.625 0.688-0.75 1.563-1.125 2.625-1.125h5.313c1 0 1.875 0.375 2.625 1.125s1.125 1.625 1.125 2.625v0.5h9.063c1 0 1.875 0.375 2.625 1.125s1.125 1.625 1.125 2.625v2.688h3.188c0.563 0 1.125 0.125 1.625 0.375 0.5 0.313 0.875 0.688 1.125 1.188 0.188 0.375 0.25 0.75 0.25 1.125z"></path>
</symbol>
<symbol id="folder-closed-line" viewBox="0 0 32 32">
<path d="M28.563 23.438v-12.563c0-0.5-0.188-0.875-0.5-1.25-0.313-0.313-0.75-0.5-1.188-0.5h-12.563c-0.5 0-0.938-0.125-1.25-0.5-0.313-0.313-0.5-0.75-0.5-1.188v-1.125c0-0.5-0.188-0.938-0.5-1.25s-0.75-0.5-1.188-0.5h-5.75c-0.438 0-0.875 0.188-1.188 0.5s-0.5 0.75-0.5 1.25v17.125c0 0.438 0.188 0.875 0.5 1.188 0.313 0.375 0.75 0.5 1.188 0.5h21.75c0.438 0 0.875-0.125 1.188-0.5 0.313-0.313 0.5-0.75 0.5-1.188zM30.875 10.875v12.563c0 1.063-0.438 2-1.188 2.813-0.813 0.813-1.75 1.188-2.813 1.188h-21.75c-1.063 0-2-0.375-2.813-1.188-0.75-0.813-1.188-1.75-1.188-2.813v-17.125c0-1.125 0.438-2.063 1.188-2.875 0.813-0.75 1.75-1.125 2.813-1.125h5.75c1.063 0 2 0.375 2.813 1.125 0.75 0.813 1.188 1.75 1.188 2.875v0.563h12c1.063 0 2 0.375 2.813 1.188 0.75 0.75 1.188 1.688 1.188 2.813z"></path>
</symbol>
<symbol id="arrow-left-circled" viewBox="0 0 32 32">
<path d="M18.5 24.938l1.813-1.875c0.25-0.188 0.375-0.438 0.375-0.75s-0.125-0.625-0.375-0.813l-5.438-5.5 5.438-5.5c0.25-0.188 0.375-0.5 0.375-0.813s-0.125-0.563-0.375-0.75l-1.813-1.875c-0.188-0.188-0.5-0.313-0.813-0.313s-0.563 0.125-0.75 0.313l-8.125 8.125c-0.25 0.25-0.375 0.5-0.375 0.813s0.125 0.563 0.375 0.813l8.125 8.125c0.188 0.188 0.438 0.313 0.75 0.313s0.625-0.125 0.813-0.313zM29.688 16c0 2.5-0.563 4.813-1.813 6.875-1.25 2.125-2.875 3.75-5 5-2.063 1.25-4.375 1.813-6.875 1.813s-4.813-0.563-6.875-1.813c-2.125-1.25-3.75-2.875-5-5-1.25-2.063-1.813-4.375-1.813-6.875s0.563-4.813 1.813-6.875c1.25-2.125 2.875-3.75 5-5 2.063-1.25 4.375-1.813 6.875-1.813s4.813 0.563 6.875 1.813c2.125 1.25 3.75 2.875 5 5 1.25 2.063 1.813 4.375 1.813 6.875z"></path>
</symbol>
<symbol id="arrow-right-circled" viewBox="0 0 32 32">
<path d="M15.063 24.938l8.125-8.125c0.25-0.25 0.375-0.5 0.375-0.813s-0.125-0.563-0.375-0.813l-8.125-8.125c-0.188-0.188-0.438-0.313-0.75-0.313s-0.625 0.125-0.813 0.313l-1.813 1.875c-0.25 0.188-0.375 0.438-0.375 0.75s0.125 0.625 0.375 0.813l5.438 5.5-5.438 5.5c-0.25 0.188-0.375 0.5-0.375 0.813s0.125 0.563 0.375 0.75l1.813 1.875c0.188 0.188 0.5 0.313 0.813 0.313s0.563-0.125 0.75-0.313zM29.688 16c0 2.5-0.563 4.813-1.813 6.875-1.25 2.125-2.875 3.75-5 5-2.063 1.25-4.375 1.813-6.875 1.813s-4.813-0.563-6.875-1.813c-2.125-1.25-3.75-2.875-5-5-1.25-2.063-1.813-4.375-1.813-6.875s0.563-4.813 1.813-6.875c1.25-2.125 2.875-3.75 5-5 2.063-1.25 4.375-1.813 6.875-1.813s4.813 0.563 6.875 1.813c2.125 1.25 3.75 2.875 5 5 1.25 2.063 1.813 4.375 1.813 6.875z"></path>
</symbol>
<symbol id="twitter" viewBox="0 0 32 32">
<path d="M30.063 7.313c-0.813 1.125-1.75 2.125-2.875 2.938 0 0.188 0 0.438 0 0.75 0 1.563-0.188 3.125-0.688 4.625-0.438 1.563-1.125 3.063-2.063 4.438-0.875 1.438-2 2.688-3.25 3.813-1.313 1.063-2.813 1.938-4.625 2.563-1.813 0.688-3.75 1-5.75 1-3.25 0-6.188-0.875-8.875-2.625 0.438 0.063 0.875 0.125 1.375 0.125 2.688 0 5.063-0.875 7.188-2.5-1.25 0-2.375-0.375-3.375-1.125s-1.688-1.688-2.063-2.875c0.438 0.063 0.813 0.125 1.125 0.125 0.5 0 1-0.063 1.5-0.25-1.313-0.25-2.438-0.938-3.313-1.938-0.875-1.063-1.313-2.313-1.313-3.688v-0.063c0.813 0.438 1.688 0.688 2.625 0.688-0.813-0.5-1.438-1.188-1.875-2-0.5-0.875-0.688-1.813-0.688-2.75 0-1.063 0.25-2.063 0.75-2.938 1.438 1.75 3.188 3.188 5.25 4.25s4.313 1.688 6.688 1.813c-0.125-0.5-0.188-0.938-0.188-1.375 0-1.563 0.563-2.938 1.688-4.063s2.5-1.688 4.125-1.688c1.625 0 3.063 0.625 4.188 1.813 1.313-0.25 2.5-0.688 3.688-1.375-0.438 1.375-1.313 2.438-2.563 3.188 1.125-0.125 2.188-0.438 3.313-0.875z"></path>
</symbol>
<symbol id="diagram" viewBox="0 0 32 32">
<path d="M32 22.313v5.688c0 0.5-0.188 0.875-0.5 1.188-0.313 0.375-0.75 0.5-1.188 0.5h-5.75c-0.438 0-0.875-0.125-1.188-0.5-0.375-0.313-0.5-0.688-0.5-1.188v-5.688c0-0.5 0.125-0.938 0.5-1.25 0.313-0.313 0.75-0.5 1.188-0.5h1.75v-3.438h-9.188v3.438h1.75c0.438 0 0.875 0.188 1.188 0.5s0.5 0.75 0.5 1.25v5.688c0 0.5-0.188 0.875-0.5 1.188-0.313 0.375-0.75 0.5-1.188 0.5h-5.75c-0.438 0-0.875-0.125-1.188-0.5-0.313-0.313-0.5-0.688-0.5-1.188v-5.688c0-0.5 0.188-0.938 0.5-1.25s0.75-0.5 1.188-0.5h1.75v-3.438h-9.188v3.438h1.75c0.438 0 0.875 0.188 1.188 0.5 0.375 0.313 0.5 0.75 0.5 1.25v5.688c0 0.5-0.125 0.875-0.5 1.188-0.313 0.375-0.75 0.5-1.188 0.5h-5.75c-0.438 0-0.875-0.125-1.188-0.5-0.313-0.313-0.5-0.688-0.5-1.188v-5.688c0-0.5 0.188-0.938 0.5-1.25s0.75-0.5 1.188-0.5h1.75v-3.438c0-0.625 0.188-1.125 0.688-1.563 0.438-0.5 1-0.688 1.563-0.688h9.188v-3.438h-1.75c-0.438 0-0.875-0.188-1.188-0.5s-0.5-0.75-0.5-1.25v-5.688c0-0.5 0.188-0.875 0.5-1.188 0.313-0.375 0.75-0.5 1.188-0.5h5.75c0.438 0 0.875 0.125 1.188 0.5 0.313 0.313 0.5 0.688 0.5 1.188v5.688c0 0.5-0.188 0.938-0.5 1.25s-0.75 0.5-1.188 0.5h-1.75v3.438h9.188c0.563 0 1.125 0.188 1.563 0.688 0.5 0.438 0.688 0.938 0.688 1.563v3.438h1.75c0.438 0 0.875 0.188 1.188 0.5s0.5 0.75 0.5 1.25z"></path>
</symbol>
<symbol id="file-code" viewBox="0 0 32 32">
<path d="M28.5 6.813c0.313 0.313 0.625 0.75 0.875 1.313s0.313 1.125 0.313 1.563v20.625c0 0.438-0.125 0.875-0.5 1.188-0.313 0.313-0.688 0.5-1.188 0.5h-24c-0.5 0-0.875-0.188-1.188-0.5-0.375-0.313-0.5-0.75-0.5-1.188v-28.625c0-0.438 0.125-0.875 0.5-1.188 0.313-0.313 0.688-0.5 1.188-0.5h16c0.5 0 1 0.125 1.563 0.375s1.063 0.5 1.375 0.813zM20.563 2.438v6.688h6.75c-0.125-0.313-0.25-0.563-0.438-0.688l-5.563-5.625c-0.125-0.125-0.375-0.25-0.75-0.375zM27.438 29.688v-18.25h-7.438c-0.5 0-0.875-0.188-1.188-0.5-0.375-0.313-0.5-0.75-0.5-1.25v-7.375h-13.75v27.375zM10.875 13.688c0.063-0.125 0.188-0.188 0.375-0.188 0.125 0 0.25 0 0.438 0.125l0.875 0.688c0.125 0.063 0.188 0.188 0.25 0.375 0 0.125-0.063 0.25-0.125 0.375l-3.25 4.375 3.25 4.313c0.063 0.125 0.125 0.313 0.125 0.438-0.063 0.188-0.125 0.313-0.25 0.375l-0.875 0.688c-0.188 0.125-0.313 0.125-0.438 0.125-0.188 0-0.313-0.125-0.375-0.25l-4.063-5.375c-0.188-0.188-0.188-0.438 0-0.688zM25.188 19.063c0.188 0.25 0.188 0.5 0 0.688l-4.063 5.375c-0.063 0.125-0.188 0.25-0.375 0.25-0.125 0-0.25 0-0.438-0.125l-0.875-0.688c-0.125-0.063-0.188-0.188-0.25-0.375 0-0.125 0.063-0.313 0.125-0.438l3.25-4.313-3.25-4.375c-0.063-0.125-0.125-0.25-0.125-0.375 0.063-0.188 0.125-0.313 0.25-0.375l0.875-0.688c0.188-0.125 0.313-0.125 0.438-0.125 0.188 0 0.313 0.063 0.375 0.188zM14.125 27.313c-0.188 0-0.313-0.063-0.375-0.25-0.125-0.125-0.125-0.25-0.125-0.375l2.5-14.875c0-0.125 0.063-0.25 0.188-0.375 0.188-0.063 0.313-0.125 0.438-0.063l1.125 0.188c0.188 0 0.313 0.063 0.375 0.188 0.125 0.125 0.125 0.313 0.125 0.438l-2.5 14.875c0 0.125-0.063 0.25-0.188 0.313-0.188 0.125-0.313 0.125-0.438 0.125z"></path>
</symbol>
<symbol id="file-excel" viewBox="0 0 32 32">
<path d="M28.5 6.813c0.313 0.313 0.625 0.75 0.875 1.313s0.313 1.125 0.313 1.563v20.625c0 0.438-0.125 0.875-0.5 1.188-0.313 0.313-0.688 0.5-1.188 0.5h-24c-0.5 0-0.875-0.188-1.188-0.5-0.375-0.313-0.5-0.75-0.5-1.188v-28.625c0-0.438 0.125-0.875 0.5-1.188 0.313-0.313 0.688-0.5 1.188-0.5h16c0.5 0 1 0.125 1.563 0.375s1.063 0.5 1.375 0.813zM20.563 2.438v6.688h6.75c-0.125-0.313-0.25-0.563-0.438-0.688l-5.563-5.625c-0.125-0.125-0.375-0.25-0.75-0.375zM27.438 29.688v-18.25h-7.438c-0.5 0-0.875-0.188-1.188-0.5-0.375-0.313-0.5-0.75-0.5-1.25v-7.375h-13.75v27.375zM9.938 25.563v1.875h5v-1.875h-1.313l1.813-2.875c0.063-0.125 0.125-0.188 0.188-0.313s0.125-0.188 0.125-0.25c0.063-0.063 0.063-0.063 0.063-0.063h0.063c0 0.063 0.063 0.125 0.063 0.188 0.063 0 0.063 0.063 0.125 0.125 0 0.063 0.063 0.063 0.063 0.125 0.063 0.063 0.125 0.125 0.125 0.188l1.938 2.875h-1.375v1.875h5.188v-1.875h-1.188l-3.438-4.875 3.5-5.063h1.188v-1.938h-5v1.938h1.313l-1.813 2.813c-0.063 0.125-0.125 0.188-0.188 0.313s-0.125 0.188-0.188 0.25v0.063h-0.063c0-0.063 0-0.125-0.063-0.188-0.063-0.125-0.188-0.25-0.313-0.438l-1.875-2.813h1.313v-1.938h-5.125v1.938h1.188l3.375 4.875-3.438 5.063z"></path>
</symbol>
<symbol id="file-image" viewBox="0 0 32 32">
<path d="M28.5 6.813c0.313 0.313 0.625 0.75 0.875 1.313s0.313 1.125 0.313 1.563v20.625c0 0.438-0.125 0.875-0.5 1.188-0.313 0.313-0.688 0.5-1.188 0.5h-24c-0.5 0-0.875-0.188-1.188-0.5-0.375-0.313-0.5-0.75-0.5-1.188v-28.625c0-0.438 0.125-0.875 0.5-1.188 0.313-0.313 0.688-0.5 1.188-0.5h16c0.5 0 1 0.125 1.563 0.375s1.063 0.5 1.375 0.813zM20.563 2.438v6.688h6.75c-0.125-0.313-0.25-0.563-0.438-0.688l-5.563-5.625c-0.125-0.125-0.375-0.25-0.75-0.375zM27.438 29.688v-18.25h-7.438c-0.5 0-0.875-0.188-1.188-0.5-0.375-0.313-0.5-0.75-0.5-1.25v-7.375h-13.75v27.375zM25.125 21.688v5.75h-18.25v-3.438l3.438-3.438 2.25 2.313 6.875-6.875zM10.313 18.313c-1 0-1.813-0.375-2.438-1-0.688-0.688-1-1.5-1-2.438 0-1 0.313-1.75 1-2.438 0.625-0.688 1.438-1 2.438-1 0.938 0 1.75 0.313 2.375 1 0.688 0.688 1 1.438 1 2.438 0 0.938-0.313 1.75-1 2.438-0.625 0.625-1.438 1-2.375 1z"></path>
</symbol>
<symbol id="file" viewBox="0 0 32 32">
<path d="M28.5 6.813c0.313 0.313 0.625 0.75 0.875 1.313s0.313 1.125 0.313 1.563v20.625c0 0.438-0.125 0.875-0.5 1.188-0.313 0.313-0.688 0.5-1.188 0.5h-24c-0.5 0-0.875-0.188-1.188-0.5-0.375-0.313-0.5-0.75-0.5-1.188v-28.625c0-0.438 0.125-0.875 0.5-1.188 0.313-0.313 0.688-0.5 1.188-0.5h16c0.5 0 1 0.125 1.563 0.375s1.063 0.5 1.375 0.813zM20.563 2.438v6.688h6.75c-0.125-0.313-0.25-0.563-0.438-0.688l-5.563-5.625c-0.125-0.125-0.375-0.25-0.75-0.375zM27.438 29.688v-18.25h-7.438c-0.5 0-0.875-0.188-1.188-0.5-0.375-0.313-0.5-0.75-0.5-1.25v-7.375h-13.75v27.375z"></path>
</symbol>
<symbol id="file-pdf" viewBox="0 0 32 32">
<path d="M28.5 6.813c0.313 0.313 0.625 0.75 0.875 1.313s0.313 1.125 0.313 1.563v20.625c0 0.438-0.125 0.875-0.5 1.188-0.313 0.313-0.688 0.5-1.188 0.5h-24c-0.5 0-0.875-0.188-1.188-0.5-0.375-0.313-0.5-0.75-0.5-1.188v-28.625c0-0.438 0.125-0.875 0.5-1.188 0.313-0.313 0.688-0.5 1.188-0.5h16c0.5 0 1 0.125 1.563 0.375s1.063 0.5 1.375 0.813zM20.563 2.438v6.688h6.75c-0.125-0.313-0.25-0.563-0.438-0.688l-5.563-5.625c-0.125-0.125-0.375-0.25-0.75-0.375zM27.438 29.688v-18.25h-7.438c-0.5 0-0.875-0.188-1.188-0.5-0.375-0.313-0.5-0.75-0.5-1.25v-7.375h-13.75v27.375zM18.25 19.125c0.375 0.313 0.875 0.625 1.5 1 0.688-0.063 1.375-0.125 2.063-0.125 1.75 0 2.813 0.313 3.188 0.875 0.188 0.25 0.188 0.563 0.063 0.938 0 0-0.063 0-0.063 0v0.063c-0.063 0.5-0.5 0.688-1.313 0.688-0.563 0-1.25-0.125-2-0.375-0.813-0.188-1.625-0.5-2.375-0.938-2.625 0.313-4.938 0.813-7 1.5-1.813 3.125-3.25 4.688-4.313 4.688-0.188 0-0.313-0.063-0.5-0.125l-0.438-0.25c0 0 0 0-0.063-0.063-0.125-0.125-0.188-0.313-0.125-0.625 0.125-0.5 0.438-1.063 1-1.625 0.563-0.625 1.375-1.188 2.375-1.75 0.125-0.125 0.313-0.063 0.375 0.125 0.063 0 0.063 0 0.063 0.063 0.625-1 1.25-2.188 1.875-3.5 0.813-1.625 1.438-3.188 1.875-4.688-0.25-1-0.438-1.938-0.563-2.875-0.063-0.938 0-1.688 0.125-2.25 0.125-0.5 0.375-0.75 0.75-0.75h0.438c0.25 0 0.438 0.125 0.625 0.313 0.188 0.25 0.25 0.625 0.125 1.188 0 0.063-0.063 0.125-0.063 0.125 0 0.063 0 0.125 0 0.188v0.5c0 1.5-0.063 2.625-0.25 3.438 0.688 1.938 1.563 3.375 2.625 4.25zM7.938 26.438c0.625-0.25 1.438-1.188 2.5-2.813-0.625 0.5-1.125 1-1.563 1.5-0.438 0.563-0.75 1-0.938 1.313zM15.063 10.063c-0.188 0.5-0.188 1.25 0 2.313 0-0.063 0-0.313 0.125-0.75 0-0.063 0-0.313 0.125-0.813 0 0 0-0.063 0.063-0.125 0 0-0.063 0-0.063 0 0-0.063 0-0.063 0-0.063s0 0 0 0c0-0.25-0.063-0.5-0.25-0.688 0 0.063 0 0.063 0 0.063zM12.875 21.813c1.563-0.625 3.25-1.125 5.063-1.438-0.063 0-0.125-0.063-0.25-0.125-0.125-0.125-0.188-0.188-0.25-0.25-0.938-0.813-1.688-1.875-2.313-3.188-0.313 1.063-0.813 2.25-1.438 3.563-0.375 0.625-0.625 1.125-0.813 1.438zM24.375 21.563c-0.25-0.313-1.125-0.438-2.5-0.438 0.938 0.313 1.688 0.5 2.25 0.5 0.125 0 0.25 0 0.313 0 0 0 0-0.063-0.063-0.063z"></path>
</symbol>
<symbol id="file-powerpoint" viewBox="0 0 32 32">
<path d="M28.5 6.813c0.313 0.313 0.625 0.75 0.875 1.313s0.313 1.125 0.313 1.563v20.625c0 0.438-0.125 0.875-0.5 1.188-0.313 0.313-0.688 0.5-1.188 0.5h-24c-0.5 0-0.875-0.188-1.188-0.5-0.375-0.313-0.5-0.75-0.5-1.188v-28.625c0-0.438 0.125-0.875 0.5-1.188 0.313-0.313 0.688-0.5 1.188-0.5h16c0.5 0 1 0.125 1.563 0.375s1.063 0.5 1.375 0.813zM20.563 2.438v6.688h6.75c-0.125-0.313-0.25-0.563-0.438-0.688l-5.563-5.625c-0.125-0.125-0.375-0.25-0.75-0.375zM27.438 29.688v-18.25h-7.438c-0.5 0-0.875-0.188-1.188-0.5-0.375-0.313-0.5-0.75-0.5-1.25v-7.375h-13.75v27.375zM9.688 25.563v1.875h5.875v-1.875h-1.688v-3h2.438c0.938 0 1.625-0.125 2.125-0.25 0.813-0.313 1.438-0.813 1.938-1.563 0.438-0.75 0.688-1.625 0.688-2.625 0-0.938-0.25-1.813-0.688-2.5-0.438-0.75-1-1.25-1.75-1.563-0.563-0.25-1.375-0.375-2.313-0.375h-6.625v1.938h1.688v9.938zM16 20.563h-2.125v-4.813h2.188c0.563 0 1.063 0.125 1.438 0.313 0.688 0.375 1 1.063 1 2.063 0 1.063-0.375 1.75-1.063 2.125-0.375 0.188-0.875 0.313-1.438 0.313z"></path>
</symbol>
<symbol id="file-text" viewBox="0 0 32 32">
<path d="M28.5 8.5c0.188 0.188 0.313 0.375 0.5 0.625h-8.438v-8.438c0.25 0.188 0.5 0.375 0.625 0.5zM20 11.438h9.688v18.875c0 0.438-0.125 0.875-0.5 1.188-0.313 0.313-0.688 0.5-1.188 0.5h-24c-0.5 0-0.875-0.188-1.188-0.5-0.375-0.313-0.5-0.75-0.5-1.188v-28.625c0-0.438 0.125-0.875 0.5-1.188 0.313-0.313 0.688-0.5 1.188-0.5h14.313v9.688c0 0.5 0.125 0.938 0.5 1.25 0.313 0.313 0.688 0.5 1.188 0.5zM22.875 24.563v-1.125c0-0.188-0.063-0.313-0.188-0.438-0.125-0.063-0.25-0.125-0.375-0.125h-12.625c-0.125 0-0.25 0.063-0.375 0.125-0.125 0.125-0.188 0.25-0.188 0.438v1.125c0 0.188 0.063 0.313 0.188 0.438 0.125 0.063 0.25 0.125 0.375 0.125h12.625c0.125 0 0.25-0.063 0.375-0.125 0.125-0.125 0.188-0.25 0.188-0.438zM22.875 20v-1.125c0-0.188-0.063-0.313-0.188-0.438s-0.25-0.125-0.375-0.125h-12.625c-0.125 0-0.25 0-0.375 0.125s-0.188 0.25-0.188 0.438v1.125c0 0.188 0.063 0.313 0.188 0.438 0.125 0.063 0.25 0.125 0.375 0.125h12.625c0.125 0 0.25-0.063 0.375-0.125 0.125-0.125 0.188-0.25 0.188-0.438zM22.875 15.438v-1.125c0-0.188-0.063-0.313-0.188-0.438s-0.25-0.188-0.375-0.188h-12.625c-0.125 0-0.25 0.063-0.375 0.188s-0.188 0.25-0.188 0.438v1.125c0 0.188 0.063 0.313 0.188 0.375 0.125 0.125 0.25 0.188 0.375 0.188h12.625c0.125 0 0.25-0.063 0.375-0.188 0.125-0.063 0.188-0.188 0.188-0.375z"></path>
</symbol>
<symbol id="file-text-line" viewBox="0 0 32 32">
<path d="M28.5 6.813c0.313 0.313 0.625 0.75 0.875 1.313s0.313 1.125 0.313 1.563v20.625c0 0.438-0.125 0.875-0.5 1.188-0.313 0.313-0.688 0.5-1.188 0.5h-24c-0.5 0-0.875-0.188-1.188-0.5-0.375-0.313-0.5-0.75-0.5-1.188v-28.625c0-0.438 0.125-0.875 0.5-1.188 0.313-0.313 0.688-0.5 1.188-0.5h16c0.5 0 1 0.125 1.563 0.375s1.063 0.5 1.375 0.813zM20.563 2.438v6.688h6.75c-0.125-0.313-0.25-0.563-0.438-0.688l-5.563-5.625c-0.125-0.125-0.375-0.25-0.75-0.375zM27.438 29.688v-18.25h-7.438c-0.5 0-0.875-0.188-1.188-0.5-0.375-0.313-0.5-0.75-0.5-1.25v-7.375h-13.75v27.375zM9.125 14.313c0-0.188 0.063-0.313 0.188-0.438s0.25-0.188 0.375-0.188h12.625c0.125 0 0.25 0.063 0.375 0.188s0.188 0.25 0.188 0.438v1.125c0 0.188-0.063 0.313-0.188 0.375-0.125 0.125-0.25 0.188-0.375 0.188h-12.625c-0.125 0-0.25-0.063-0.375-0.188-0.125-0.063-0.188-0.188-0.188-0.375zM22.313 18.313c0.125 0 0.25 0 0.375 0.125s0.188 0.25 0.188 0.438v1.125c0 0.188-0.063 0.313-0.188 0.438-0.125 0.063-0.25 0.125-0.375 0.125h-12.625c-0.125 0-0.25-0.063-0.375-0.125-0.125-0.125-0.188-0.25-0.188-0.438v-1.125c0-0.188 0.063-0.313 0.188-0.438s0.25-0.125 0.375-0.125zM22.313 22.875c0.125 0 0.25 0.063 0.375 0.125 0.125 0.125 0.188 0.25 0.188 0.438v1.125c0 0.188-0.063 0.313-0.188 0.438-0.125 0.063-0.25 0.125-0.375 0.125h-12.625c-0.125 0-0.25-0.063-0.375-0.125-0.125-0.125-0.188-0.25-0.188-0.438v-1.125c0-0.188 0.063-0.313 0.188-0.438 0.125-0.063 0.25-0.125 0.375-0.125z"></path>
</symbol>
<symbol id="file-video" viewBox="0 0 32 32">
<path d="M28.5 6.813c0.313 0.313 0.625 0.75 0.875 1.313s0.313 1.125 0.313 1.563v20.625c0 0.438-0.125 0.875-0.5 1.188-0.313 0.313-0.688 0.5-1.188 0.5h-24c-0.5 0-0.875-0.188-1.188-0.5-0.375-0.313-0.5-0.75-0.5-1.188v-28.625c0-0.438 0.125-0.875 0.5-1.188 0.313-0.313 0.688-0.5 1.188-0.5h16c0.5 0 1 0.125 1.563 0.375s1.063 0.5 1.375 0.813zM20.563 2.438v6.688h6.75c-0.125-0.313-0.25-0.563-0.438-0.688l-5.563-5.625c-0.125-0.125-0.375-0.25-0.75-0.375zM27.438 29.688v-18.25h-7.438c-0.5 0-0.875-0.188-1.188-0.5-0.375-0.313-0.5-0.75-0.5-1.25v-7.375h-13.75v27.375zM16 13.688c0.625 0 1.125 0.25 1.625 0.688 0.438 0.5 0.688 1 0.688 1.625v6.875c0 0.625-0.25 1.125-0.688 1.563-0.5 0.5-1 0.688-1.625 0.688h-6.875c-0.625 0-1.125-0.188-1.563-0.688-0.5-0.438-0.688-0.938-0.688-1.563v-6.875c0-0.625 0.188-1.125 0.688-1.625 0.438-0.438 0.938-0.688 1.563-0.688zM24.813 13.75c0.188 0.125 0.313 0.25 0.313 0.563v10.25c0 0.25-0.125 0.438-0.313 0.563-0.125 0-0.188 0-0.25 0-0.188 0-0.313-0.063-0.375-0.125l-4.75-4.75v-1.625l4.75-4.75c0.063-0.125 0.188-0.188 0.375-0.188 0.063 0 0.125 0.063 0.25 0.063z"></path>
</symbol>
<symbol id="file-word" viewBox="0 0 32 32">
<path d="M28.5 6.813c0.313 0.313 0.625 0.75 0.875 1.313s0.313 1.125 0.313 1.563v20.625c0 0.438-0.125 0.875-0.5 1.188-0.313 0.313-0.688 0.5-1.188 0.5h-24c-0.5 0-0.875-0.188-1.188-0.5-0.375-0.313-0.5-0.75-0.5-1.188v-28.625c0-0.438 0.125-0.875 0.5-1.188 0.313-0.313 0.688-0.5 1.188-0.5h16c0.5 0 1 0.125 1.563 0.375s1.063 0.5 1.375 0.813zM20.563 2.438v6.688h6.75c-0.125-0.313-0.25-0.563-0.438-0.688l-5.563-5.625c-0.125-0.125-0.375-0.25-0.75-0.375zM27.438 29.688v-18.25h-7.438c-0.5 0-0.875-0.188-1.188-0.5-0.375-0.313-0.5-0.75-0.5-1.25v-7.375h-13.75v27.375zM6.438 13.688v1.938h1.25l2.938 11.813h2.813l2.313-8.688c0.063-0.25 0.125-0.5 0.188-0.813 0-0.188 0-0.313 0-0.438h0.125v0.438c0.063 0.063 0.063 0.188 0.063 0.375 0.063 0.188 0.063 0.375 0.125 0.438l2.313 8.688h2.813l2.938-11.813h1.25v-1.938h-5.375v1.938h1.625l-1.75 7.813c-0.063 0.25-0.125 0.5-0.125 0.813l-0.063 0.375h-0.063l-0.063-0.375c0-0.063-0.063-0.188-0.063-0.375-0.063-0.188-0.063-0.313-0.125-0.438l-2.563-9.75h-2l-2.563 9.75c-0.063 0.125-0.063 0.25-0.125 0.438 0 0.188-0.063 0.313-0.063 0.375l-0.063 0.375h-0.063l-0.063-0.375c0-0.313-0.063-0.563-0.125-0.813l-1.75-7.813h1.625v-1.938z"></path>
</symbol>
<symbol id="mobile" viewBox="0 0 32 32">
<path d="M17.438 25.125c0-0.375-0.125-0.688-0.438-1-0.25-0.25-0.625-0.438-1-0.438s-0.75 0.188-1 0.438c-0.313 0.313-0.438 0.625-0.438 1 0 0.438 0.125 0.75 0.438 1 0.25 0.313 0.625 0.438 1 0.438s0.75-0.125 1-0.438c0.313-0.25 0.438-0.563 0.438-1zM21.125 22.313v-12.625c0-0.125-0.063-0.25-0.125-0.375-0.125-0.125-0.25-0.188-0.438-0.188h-9.125c-0.188 0-0.313 0.063-0.438 0.188-0.063 0.125-0.125 0.25-0.125 0.375v12.625c0 0.125 0.063 0.25 0.125 0.375 0.125 0.125 0.25 0.188 0.438 0.188h9.125c0.188 0 0.313-0.063 0.438-0.188 0.063-0.125 0.125-0.25 0.125-0.375zM17.688 7.125c0-0.188-0.063-0.25-0.25-0.25h-2.875c-0.188 0-0.25 0.063-0.25 0.25s0.063 0.313 0.25 0.313h2.875c0.188 0 0.25-0.125 0.25-0.313zM22.875 6.875v18.25c0 0.625-0.25 1.188-0.688 1.625s-1 0.688-1.625 0.688h-9.125c-0.625 0-1.188-0.25-1.625-0.688s-0.688-1-0.688-1.625v-18.25c0-0.625 0.25-1.188 0.688-1.625s1-0.688 1.625-0.688h9.125c0.625 0 1.188 0.25 1.625 0.688s0.688 1 0.688 1.625z"></path>
</symbol>
<symbol id="cog" viewBox="0 0 32 32">
<path d="M20.563 16c0-1.25-0.438-2.313-1.313-3.25-0.938-0.875-2-1.313-3.25-1.313s-2.313 0.438-3.25 1.313c-0.875 0.938-1.313 2-1.313 3.25s0.438 2.313 1.313 3.25c0.938 0.875 2 1.313 3.25 1.313s2.313-0.438 3.25-1.313c0.875-0.938 1.313-2 1.313-3.25zM29.688 14.063v3.938c0 0.188 0 0.313-0.125 0.438-0.063 0.125-0.188 0.188-0.375 0.25l-3.25 0.5c-0.25 0.625-0.5 1.188-0.75 1.625 0.438 0.563 1.063 1.375 1.938 2.438 0.125 0.125 0.188 0.313 0.188 0.438 0 0.188-0.063 0.313-0.188 0.438-0.313 0.438-0.875 1.063-1.75 1.938-0.875 0.813-1.438 1.25-1.688 1.25-0.125 0-0.313-0.063-0.438-0.188l-2.5-1.938c-0.5 0.313-1.063 0.5-1.625 0.688-0.188 1.625-0.375 2.75-0.5 3.313-0.063 0.375-0.313 0.5-0.625 0.5h-4c-0.125 0-0.313 0-0.438-0.125s-0.188-0.25-0.188-0.375l-0.5-3.313c-0.563-0.188-1.125-0.375-1.625-0.625l-2.5 1.875c-0.125 0.125-0.25 0.188-0.438 0.188s-0.313-0.063-0.438-0.188c-1.5-1.375-2.5-2.375-2.938-3-0.125-0.125-0.125-0.25-0.125-0.438 0-0.125 0-0.25 0.125-0.375 0.188-0.25 0.5-0.688 0.875-1.188 0.438-0.563 0.75-1 1-1.313-0.313-0.563-0.563-1.188-0.75-1.75l-3.25-0.5c-0.188 0-0.313-0.063-0.375-0.188-0.125-0.125-0.125-0.25-0.125-0.438v-3.938c0-0.188 0-0.313 0.125-0.438 0.063-0.125 0.188-0.188 0.313-0.25l3.313-0.5c0.188-0.5 0.438-1.063 0.75-1.625-0.5-0.688-1.125-1.5-1.938-2.438-0.125-0.188-0.188-0.313-0.188-0.438s0.063-0.25 0.188-0.438c0.313-0.438 0.875-1.063 1.75-1.875 0.875-0.875 1.438-1.313 1.688-1.313 0.125 0 0.313 0.063 0.438 0.188l2.5 1.938c0.5-0.313 1.063-0.5 1.625-0.688 0.188-1.625 0.375-2.75 0.5-3.313 0.063-0.375 0.313-0.5 0.625-0.5h4c0.125 0 0.313 0 0.438 0.125s0.188 0.25 0.188 0.375l0.5 3.313c0.563 0.188 1.125 0.375 1.625 0.625l2.5-1.875c0.125-0.125 0.25-0.188 0.438-0.188s0.313 0.063 0.438 0.188c1.563 1.438 2.563 2.438 2.938 3.063 0.125 0.063 0.125 0.188 0.125 0.375 0 0.125 0 0.25-0.125 0.375-0.188 0.25-0.5 0.688-0.875 1.188-0.438 0.563-0.75 1-1 1.313 0.313 0.563 0.563 1.125 0.75 1.75l3.25 0.5c0.188 0 0.313 0.063 0.375 0.188 0.125 0.125 0.125 0.25 0.125 0.438z"></path>
</symbol>
<symbol id="alert-circled" viewBox="0 0 32 32">
<path d="M17.313 21.313h-2.625v-8h2.625M17.313 26.688h-2.625v-2.688h2.625M16 6.688c-7.375 0-13.313 5.938-13.313 13.313s5.938 13.313 13.313 13.313c7.375 0 13.313-5.938 13.313-13.313s-5.938-13.313-13.313-13.313z"></path>
</symbol>
<symbol id="check-starburst" viewBox="0 0 32 32">
<path d="M30.688 20l-3.25-3.688 0.438-4.938-4.813-1.063-2.5-4.25-4.563 1.938-4.563-1.938-2.5 4.25-4.813 1.063 0.438 4.875-3.25 3.75 3.25 3.688-0.438 4.938 4.813 1.125 2.5 4.188 4.563-1.938 4.563 1.938 2.5-4.25 4.813-1.063-0.438-4.938 3.25-3.688M13.313 26.688l-5.313-5.375 1.875-1.875 3.438 3.438 8.813-8.75 1.875 1.875z"></path>
</symbol>
<symbol id="carrot-right-circled" viewBox="0 0 32 32">
<path d="M2.688 20c0-7.375 5.938-13.313 13.313-13.313s13.313 5.938 13.313 13.313c0 7.375-5.938 13.313-13.313 13.313s-13.313-5.938-13.313-13.313M13.313 26.688l6.688-6.688-6.688-6.688z"></path>
</symbol>
<symbol id="carrot-up-circled" viewBox="0 0 32 32">
<path d="M16 33.313c-7.375 0-13.313-5.938-13.313-13.313s5.938-13.313 13.313-13.313c7.375 0 13.313 5.938 13.313 13.313s-5.938 13.313-13.313 13.313M22.688 22.688l-6.688-6.688-6.688 6.688z"></path>
</symbol>
<symbol id="carrot-down-circled" viewBox="0 0 32 32">
<path d="M16 6.688c7.375 0 13.313 5.938 13.313 13.313s-5.938 13.313-13.313 13.313c-7.375 0-13.313-5.938-13.313-13.313s5.938-13.313 13.313-13.313M9.313 17.313l6.688 6.688 6.688-6.688z"></path>
</symbol>
<symbol id="bike" viewBox="0 0 32 32">
<path d="M6.688 31.313c-2.625 0-4.688-2.063-4.688-4.625 0-2.625 2.063-4.688 4.688-4.688 2.563 0 4.625 2.063 4.625 4.688 0 2.563-2.063 4.625-4.625 4.625M6.688 20c-3.688 0-6.688 3-6.688 6.688s3 6.625 6.688 6.625c3.688 0 6.625-2.938 6.625-6.625s-2.938-6.688-6.625-6.688M19.75 17.313h5.563v-2.375h-4.25l-2.563-4.375c-0.438-0.625-1.188-1.125-1.938-1.125-0.625 0-1.25 0.313-1.625 0.688l-4.938 4.938c-0.438 0.375-0.688 0.938-0.688 1.625 0 0.813 0.438 1.5 1.125 1.938l4.5 2.688v6.688h2.375v-8.688l-3-2.188 3.125-3.125M25.313 31.313c-2.563 0-4.625-2.063-4.625-4.625 0-2.625 2.063-4.688 4.625-4.688 2.625 0 4.688 2.063 4.688 4.688 0 2.563-2.063 4.625-4.688 4.625M25.313 20c-3.688 0-6.625 3-6.625 6.688s2.938 6.625 6.625 6.625c3.688 0 6.688-2.938 6.688-6.625s-3-6.688-6.688-6.688M21.313 10.375c1.375 0 2.438-1.063 2.438-2.375s-1.063-2.375-2.438-2.375c-1.313 0-2.375 1.063-2.375 2.375s1.063 2.375 2.375 2.375z"></path>
</symbol>
<symbol id="auto" viewBox="0 0 32 32">
<path d="M6.688 18.688l2-6h14.625l2 6M23.313 25.313c-1.063 0-2-0.875-2-2 0-1.063 0.938-2 2-2 1.125 0 2 0.938 2 2 0 1.125-0.875 2-2 2M8.688 25.313c-1.125 0-2-0.875-2-2 0-1.063 0.875-2 2-2 1.063 0 2 0.938 2 2 0 1.125-0.938 2-2 2M25.25 12c-0.313-0.75-1.063-1.313-1.938-1.313h-14.625c-0.875 0-1.625 0.563-1.938 1.313l-2.75 8v10.688c0 0.688 0.625 1.313 1.313 1.313h1.375c0.688 0 1.313-0.625 1.313-1.313v-1.375h16v1.375c0 0.688 0.625 1.313 1.313 1.313h1.375c0.688 0 1.313-0.625 1.313-1.313v-10.688z"></path>
</symbol>
<symbol id="devices" viewBox="0 0 32 32">
<path d="M29.313 26.688h-5.313v-9.375h5.313M30.688 14.688h-8c-0.75 0-1.375 0.563-1.375 1.313v13.313c0 0.75 0.625 1.375 1.375 1.375h8c0.688 0 1.313-0.625 1.313-1.375v-13.313c0-0.75-0.625-1.313-1.313-1.313M5.313 12h24v-2.688h-24c-1.438 0-2.625 1.25-2.625 2.688v14.688h-2.688v4h18.688v-4h-13.375z"></path>
</symbol>
<symbol id="mobile-1" viewBox="0 0 32 32">
<path d="M21.313 28h-12v-18.688h12M15.313 33.313c-1.063 0-2-0.875-2-2 0-1.063 0.938-2 2-2 1.125 0 2 0.938 2 2 0 1.125-0.875 2-2 2M20.688 5.313h-10.688c-1.813 0-3.313 1.5-3.313 3.375v22.625c0 1.875 1.5 3.375 3.313 3.375h10.688c1.813 0 3.313-1.5 3.313-3.375v-22.625c0-1.875-1.5-3.375-3.313-3.375z"></path>
</symbol>
<symbol id="arrow-down-line" viewBox="0 0 32 32">
<path d="M9.875 15.438l6.125 6.125 6.125-6.125 1.875 1.875-8 8-8-8z"></path>
</symbol>
<symbol id="arrow-left-line" viewBox="0 0 32 32">
<path d="M20.563 26.125l-6.125-6.125 6.125-6.125-1.875-1.875-8 8 8 8z"></path>
</symbol>
<symbol id="arrow-right-line" viewBox="0 0 32 32">
<path d="M11.438 26.125l6.125-6.125-6.125-6.125 1.875-1.875 8 8-8 8z"></path>
</symbol>
<symbol id="arrow-up-line" viewBox="0 0 32 32">
<path d="M9.875 24.563l6.125-6.125 6.125 6.125 1.875-1.875-8-8-8 8z"></path>
</symbol>
<symbol id="clock" viewBox="0 0 32 32">
<path d="M16 30.688c5.875 0 10.688-4.813 10.688-10.688s-4.813-10.688-10.688-10.688c-5.875 0-10.688 4.813-10.688 10.688s4.813 10.688 10.688 10.688M16 6.688c7.375 0 13.313 5.938 13.313 13.313s-5.938 13.313-13.313 13.313c-7.375 0-13.313-6-13.313-13.313 0-7.375 5.938-13.313 13.313-13.313M16.688 13.313v7l6 3.563-1 1.688-7-4.25v-8z"></path>
</symbol>
<symbol id="closed-circled-full" viewBox="0 0 32 32">
<path d="M16 6.688c7.375 0 13.313 5.938 13.313 13.313s-5.938 13.313-13.313 13.313c-7.375 0-13.313-5.938-13.313-13.313s5.938-13.313 13.313-13.313M20.813 13.313l-4.813 4.813-4.813-4.813-1.875 1.875 4.813 4.813-4.813 4.813 1.875 1.875 4.813-4.813 4.813 4.813 1.875-1.875-4.813-4.813 4.813-4.813z"></path>
</symbol>
<symbol id="closed-circle-line" viewBox="0 0 32 32">
<path d="M16 30.688c-5.875 0-10.688-4.813-10.688-10.688s4.813-10.688 10.688-10.688c5.875 0 10.688 4.813 10.688 10.688s-4.813 10.688-10.688 10.688M16 6.688c-7.375 0-13.313 5.938-13.313 13.313s5.938 13.313 13.313 13.313c7.375 0 13.313-5.938 13.313-13.313s-5.938-13.313-13.313-13.313M19.438 14.688l-3.438 3.438-3.438-3.438-1.875 1.875 3.438 3.438-3.438 3.438 1.875 1.875 3.438-3.438 3.438 3.438 1.875-1.875-3.438-3.438 3.438-3.438z"></path>
</symbol>
<symbol id="chatboxes-line" viewBox="0 0 32 32">
<path d="M16 34.688c-0.75 0-1.313-0.625-1.313-1.375v-4h-5.375c-1.438 0-2.625-1.188-2.625-2.625v-13.375c0-1.438 1.188-2.625 2.625-2.625h18.688c1.438 0 2.688 1.188 2.688 2.625v13.375c0 1.438-1.25 2.625-2.688 2.625h-5.438l-4.938 4.938c-0.313 0.313-0.625 0.438-0.938 0.438h-0.688M17.313 26.688v4.063l4.125-4.063h6.563v-13.375h-18.688v13.375h8M4 24h-2.688v-16c0-1.438 1.25-2.688 2.688-2.688h21.313v2.688h-21.313z"></path>
</symbol>
<symbol id="chatbox-line" viewBox="0 0 32 32">
<path d="M12 33.313c-0.75 0-1.313-0.563-1.313-1.313v-4h-5.375c-1.438 0-2.625-1.188-2.625-2.688v-16c0-1.438 1.188-2.625 2.625-2.625h21.375c1.438 0 2.625 1.188 2.625 2.625v16c0 1.5-1.188 2.688-2.625 2.688h-8.125l-4.938 4.938c-0.313 0.25-0.625 0.375-0.938 0.375h-0.688M13.313 25.313v4.125l4.125-4.125h9.25v-16h-21.375v16z"></path>
</symbol>
<symbol id="chatbox-full" viewBox="0 0 32 32">
<path d="M12 33.313c-0.75 0-1.313-0.563-1.313-1.313v-4h-5.375c-1.438 0-2.625-1.188-2.625-2.688v-16c0-1.438 1.188-2.625 2.625-2.625h21.375c1.438 0 2.625 1.188 2.625 2.625v16c0 1.5-1.188 2.688-2.625 2.688h-8.125l-4.938 4.938c-0.313 0.25-0.625 0.375-0.938 0.375z"></path>
</symbol>
<symbol id="email-line-2" viewBox="0 0 32 32">
<path d="M5.313 9.313h21.375c1.438 0 2.625 1.25 2.625 2.688v16c0 1.438-1.188 2.688-2.625 2.688h-21.375c-1.438 0-2.625-1.25-2.625-2.688v-16c0-1.5 1.188-2.688 2.625-2.688M16 18.688l10.688-6.688h-21.375l10.688 6.688M5.313 28h21.375v-12.813l-10.688 6.625-10.688-6.625z"></path>
</symbol>
<symbol id="email-full-2" viewBox="0 0 32 32">
<path d="M26.688 14.688l-10.688 6.625-10.688-6.625v-2.688l10.688 6.688 10.688-6.688M26.688 9.313h-21.375c-1.438 0-2.625 1.188-2.625 2.688v16c0 1.438 1.188 2.688 2.625 2.688h21.375c1.438 0 2.625-1.25 2.625-2.688v-16c0-1.5-1.188-2.688-2.625-2.688z"></path>
</symbol>
<symbol id="folder-drive" viewBox="0 0 32 32">
<path d="M18.313 16h3.188l3.813 6.688h-3.938l-3.375-6.063M24.375 26.688h-7.375l1.875-3.375h6.813l0.375 0.625M15.313 26.688l-1.438-2.875 3.75-6.625 2 3.563-3.313 5.938M26.688 12h-10.688l-2.688-2.688h-8c-1.438 0-2.625 1.188-2.625 2.688v16c0 1.438 1.188 2.688 2.625 2.688h21.375c1.438 0 2.625-1.25 2.625-2.688v-13.313c0-1.5-1.188-2.688-2.625-2.688z"></path>
</symbol>
<symbol id="destination" viewBox="0 0 32 32">
<path d="M16 19.313c-1.813 0-3.313-1.5-3.313-3.313s1.5-3.313 3.313-3.313c1.813 0 3.313 1.5 3.313 3.313s-1.5 3.313-3.313 3.313M16 6.688c-5.188 0-9.313 4.125-9.313 9.313 0 7 9.313 17.313 9.313 17.313s9.313-10.313 9.313-17.313c0-5.188-4.125-9.313-9.313-9.313z"></path>
</symbol>
<symbol id="phone" viewBox="0 0 32 32">
<path d="M8.813 18.375c1.938 3.813 5 6.875 8.813 8.813l2.938-2.938c0.375-0.375 0.875-0.5 1.375-0.313 1.438 0.438 3.063 0.75 4.75 0.75 0.688 0 1.313 0.563 1.313 1.313v4.688c0 0.688-0.625 1.313-1.313 1.313-12.563 0-22.688-10.125-22.688-22.688 0-0.688 0.625-1.313 1.313-1.313h4.688c0.75 0 1.313 0.625 1.313 1.313 0 1.688 0.313 3.313 0.75 4.75 0.188 0.5 0.063 1-0.313 1.375z"></path>
</symbol>
<symbol id="triangle-right-circled-full" viewBox="0 0 32 32">
<path d="M13.313 26v-12l8 6M16 6.688c-7.375 0-13.313 5.938-13.313 13.313s5.938 13.313 13.313 13.313c7.375 0 13.313-5.938 13.313-13.313s-5.938-13.313-13.313-13.313z"></path>
</symbol>
<symbol id="plus-circled-full" viewBox="0 0 32 32">
<path d="M22.688 21.313h-5.375v5.375h-2.625v-5.375h-5.375v-2.625h5.375v-5.375h2.625v5.375h5.375M16 6.688c-7.375 0-13.313 5.938-13.313 13.313s5.938 13.313 13.313 13.313c7.375 0 13.313-5.938 13.313-13.313s-5.938-13.313-13.313-13.313z"></path>
</symbol>
<symbol id="triangle-right-circled-line" viewBox="0 0 32 32">
<path d="M16 30.688c-5.875 0-10.688-4.813-10.688-10.688s4.813-10.688 10.688-10.688c5.875 0 10.688 4.813 10.688 10.688s-4.813 10.688-10.688 10.688M16 6.688c-7.375 0-13.313 5.938-13.313 13.313s5.938 13.313 13.313 13.313c7.375 0 13.313-5.938 13.313-13.313s-5.938-13.313-13.313-13.313M13.313 26l8-6-8-6z"></path>
</symbol>
<symbol id="plus-circled-line" viewBox="0 0 32 32">
<path d="M16 30.688c-5.875 0-10.688-4.813-10.688-10.688s4.813-10.688 10.688-10.688c5.875 0 10.688 4.813 10.688 10.688s-4.813 10.688-10.688 10.688M16 6.688c-7.375 0-13.313 5.938-13.313 13.313s5.938 13.313 13.313 13.313c7.375 0 13.313-5.938 13.313-13.313s-5.938-13.313-13.313-13.313M17.313 13.313h-2.625v5.375h-5.375v2.625h5.375v5.375h2.625v-5.375h5.375v-2.625h-5.375z"></path>
</symbol>
<symbol id="email-full-1" viewBox="0 0 32 32">
<path d="M32 12.688v14.188c0 0.75-0.25 1.438-0.813 2s-1.25 0.813-2.063 0.813h-26.25c-0.813 0-1.5-0.25-2.063-0.813s-0.813-1.25-0.813-2v-14.188c0.5 0.563 1.125 1.063 1.813 1.563 4.313 2.938 7.25 4.938 8.875 6.125 0.688 0.5 1.25 0.938 1.625 1.188 0.438 0.25 1 0.563 1.688 0.875 0.75 0.25 1.375 0.438 2 0.438v0c0.625 0 1.25-0.188 2-0.438 0.688-0.313 1.25-0.625 1.688-0.875 0.375-0.25 0.938-0.688 1.625-1.188 2.063-1.438 5-3.5 8.875-6.125 0.688-0.5 1.313-1 1.813-1.563zM32 7.438c0 0.938-0.313 1.813-0.875 2.688s-1.313 1.563-2.188 2.188c-4.438 3.125-7.25 5.063-8.375 5.813-0.063 0.063-0.375 0.25-0.75 0.563-0.375 0.25-0.688 0.5-0.938 0.688-0.25 0.125-0.563 0.313-0.938 0.563-0.375 0.188-0.688 0.375-1 0.5-0.375 0.063-0.625 0.125-0.938 0.125v0c-0.313 0-0.563-0.063-0.938-0.125-0.313-0.125-0.625-0.313-1-0.5-0.375-0.25-0.688-0.438-0.938-0.563-0.25-0.188-0.563-0.438-0.938-0.688-0.375-0.313-0.688-0.5-0.75-0.563-1.125-0.75-2.688-1.875-4.688-3.25-2.063-1.438-3.25-2.25-3.688-2.563-0.75-0.5-1.438-1.188-2.063-2.063-0.688-0.875-1-1.688-1-2.438 0-0.938 0.25-1.688 0.75-2.313s1.188-0.938 2.125-0.938h26.25c0.813 0 1.438 0.313 2 0.875s0.875 1.188 0.875 2z"></path>
</symbol>
<symbol id="link-out" viewBox="0 0 32 32">
<path d="M18.688 8v2.688h4.75l-13.063 13.063 1.875 1.875 13.063-13.063v4.75h2.688v-9.313M25.313 29.313h-18.625v-18.625h9.313v-2.688h-9.313c-1.5 0-2.688 1.188-2.688 2.688v18.625c0 1.5 1.188 2.688 2.688 2.688h18.625c1.5 0 2.688-1.188 2.688-2.688v-9.313h-2.688z"></path>
</symbol>
<symbol id="minus-circled-full" viewBox="0 0 32 32">
<path d="M22.688 21.313h-13.375v-2.625h13.375M16 6.688c-7.375 0-13.313 5.938-13.313 13.313s5.938 13.313 13.313 13.313c7.375 0 13.313-5.938 13.313-13.313s-5.938-13.313-13.313-13.313z"></path>
</symbol>
<symbol id="minus-circled-line" viewBox="0 0 32 32">
<path d="M16 30.688c-5.875 0-10.688-4.813-10.688-10.688s4.813-10.688 10.688-10.688c5.875 0 10.688 4.813 10.688 10.688s-4.813 10.688-10.688 10.688M16 6.688c-7.375 0-13.313 5.938-13.313 13.313s5.938 13.313 13.313 13.313c7.375 0 13.313-5.938 13.313-13.313s-5.938-13.313-13.313-13.313M9.313 21.313h13.375v-2.625h-13.375"></path>
</symbol>
<symbol id="file-full" viewBox="0 0 32 32">
<path d="M17.313 16v-7.313l7.375 7.313M8 6.688c-1.5 0-2.688 1.188-2.688 2.625v21.375c0 1.438 1.25 2.625 2.688 2.625h16c1.438 0 2.688-1.188 2.688-2.625v-16l-8-8z"></path>
</symbol>
<symbol id="check-circled-full" viewBox="0 0 32 32">
<path d="M16 6.688c7.375 0 13.313 5.938 13.313 13.313s-5.938 13.313-13.313 13.313c-7.375 0-13.313-5.938-13.313-13.313s5.938-13.313 13.313-13.313M14.688 26l9.313-9.313-1.875-1.875-7.438 7.438-4.125-4.125-1.875 1.875z"></path>
</symbol>
<symbol id="check-circled-line" viewBox="0 0 32 32">
<path d="M16 6.688c7.375 0 13.313 5.938 13.313 13.313s-5.938 13.313-13.313 13.313c-7.375 0-13.313-5.938-13.313-13.313s5.938-13.313 13.313-13.313M16 9.313c-5.875 0-10.688 4.813-10.688 10.688s4.813 10.688 10.688 10.688c5.875 0 10.688-4.813 10.688-10.688s-4.813-10.688-10.688-10.688M14.688 26l-6-6 1.875-1.875 4.125 4.125 7.438-7.438 1.875 1.875z"></path>
</symbol>
<symbol id="home" viewBox="0 0 32 32">
<path d="M12 29.313v-8h8v8h4v-10.75l-8-8-8 8v10.75h4M16 6.813l13.188 13.188h-2.5v12h-9.375v-8h-2.625v8h-9.375v-12h-2.5z"></path>
</symbol>
<symbol id="info" viewBox="0 0 32 32">
<path d="M17.313 16h-2.625v-2.688h2.625M17.313 26.688h-2.625v-8h2.625M16 6.688c-7.375 0-13.313 5.938-13.313 13.313s5.938 13.313 13.313 13.313c7.375 0 13.313-5.938 13.313-13.313s-5.938-13.313-13.313-13.313z"></path>
</symbol>
<symbol id="desktop" viewBox="0 0 32 32">
<path d="M28 25.313h-24v-16h24M28 6.688h-24c-1.5 0-2.688 1.188-2.688 2.625v16c0 1.5 1.25 2.688 2.688 2.688h9.313v2.688h-2.625v2.625h10.625v-2.625h-2.625v-2.688h9.313c1.438 0 2.688-1.188 2.688-2.688v-16c0-1.438-1.25-2.625-2.688-2.625z"></path>
</symbol>
<symbol id="global" viewBox="0 0 32 32">
<path d="M21.813 22.688c0.125-0.875 0.188-1.75 0.188-2.688s-0.063-1.813-0.188-2.688h4.5c0.25 0.875 0.375 1.75 0.375 2.688s-0.125 1.813-0.375 2.688M19.438 30.063c0.813-1.438 1.438-3.063 1.875-4.75h3.938c-1.313 2.25-3.313 3.938-5.813 4.75M19.125 22.688h-6.25c-0.125-0.875-0.188-1.75-0.188-2.688s0.063-1.813 0.188-2.688h6.25c0.125 0.875 0.188 1.75 0.188 2.688s-0.063 1.813-0.188 2.688M16 30.625c-1.125-1.625-2-3.375-2.563-5.313h5.125c-0.563 1.938-1.438 3.688-2.563 5.313M10.688 14.688h-3.938c1.313-2.25 3.313-3.938 5.813-4.75-0.813 1.438-1.438 3.063-1.875 4.75M6.75 25.313h3.938c0.438 1.688 1.063 3.313 1.875 4.75-2.5-0.813-4.5-2.5-5.813-4.75M5.688 22.688c-0.25-0.875-0.375-1.75-0.375-2.688s0.125-1.813 0.375-2.688h4.5c-0.125 0.875-0.188 1.75-0.188 2.688s0.063 1.813 0.188 2.688M16 9.375c1.125 1.625 2 3.375 2.563 5.313h-5.125c0.563-1.938 1.438-3.688 2.563-5.313M25.25 14.688h-3.938c-0.438-1.688-1.063-3.313-1.875-4.75 2.5 0.813 4.5 2.5 5.813 4.75M16 6.688c-7.375 0-13.313 6-13.313 13.313 0 7.375 5.938 13.313 13.313 13.313s13.313-5.938 13.313-13.313c0-7.375-5.938-13.313-13.313-13.313z"></path>
</symbol>
<symbol id="fax" viewBox="0 0 32 32">
<path d="M14.688 12h6.625v2.688h-6.625v-2.688M10.688 16v-8h14.625v8c2.25 0 4 1.813 4 4v8h-4v4h-14.625v-4h-1.375v-12h1.375M13.313 10.688v5.313h9.375v-5.313h-9.375M13.313 24v5.313h9.375v-5.313h-9.375M25.313 18.688c-0.688 0-1.313 0.563-1.313 1.313s0.625 1.313 1.313 1.313c0.75 0 1.375-0.563 1.375-1.313s-0.625-1.313-1.375-1.313M5.313 16h1.375c0.688 0 1.313 0.625 1.313 1.313v9.375c0 0.688-0.625 1.313-1.313 1.313h-1.375c-1.438 0-2.625-1.188-2.625-2.688v-6.625c0-1.5 1.188-2.688 2.625-2.688z"></path>
</symbol>
<symbol id="arrow-down-2" viewBox="0 0 32 32">
<path d="M21.875 20.125c0.125 0.125 0.125 0.25 0.125 0.375s0 0.25-0.125 0.375c0 0-5.438 4.938-5.5 5s-0.188 0.125-0.375 0.125c-0.188 0-0.313-0.063-0.375-0.125s-5.5-5-5.5-5c-0.188-0.188-0.188-0.563 0-0.75s0.563-0.188 0.75 0l4.625 4.188v-17.813c0-0.25 0.25-0.5 0.5-0.5s0.5 0.25 0.5 0.5v17.813l4.625-4.188c0.188-0.188 0.563-0.188 0.75 0z"></path>
</symbol>
<symbol id="arrow-line-down" viewBox="0 0 32 32">
<path d="M24 20.188l-6.563 6.25c-0.375 0.375-0.875 0.563-1.438 0.563s-1-0.188-1.375-0.563l-6.625-6.25c-0.75-0.75-0.75-1.938 0-2.688s2.125-0.75 2.875 0l3.125 3v-13.563c0-1.063 0.875-1.938 2-1.938s2 0.875 2 1.938v13.563l3.125-3c0.75-0.75 2.125-0.75 2.875 0s0.75 1.938 0 2.688z"></path>
</symbol>
<symbol id="arrow-left-1" viewBox="0 0 32 32">
<path d="M11.875 21.875c-0.125 0.125-0.25 0.125-0.375 0.125s-0.25 0-0.375-0.125c0 0-4.938-5.438-5-5.5s-0.125-0.188-0.125-0.375c0-0.188 0.063-0.313 0.125-0.375s5-5.5 5-5.5c0.188-0.188 0.563-0.188 0.75 0s0.188 0.563 0 0.75l-4.188 4.625h17.813c0.25 0 0.5 0.25 0.5 0.5s-0.25 0.5-0.5 0.5h-17.813l4.188 4.625c0.188 0.188 0.188 0.563 0 0.75z"></path>
</symbol>
<symbol id="arrow-right-1" viewBox="0 0 32 32">
<path d="M20.125 21.875c-0.188-0.188-0.188-0.563 0-0.75l4.188-4.625h-17.813c-0.25 0-0.5-0.25-0.5-0.5s0.25-0.5 0.5-0.5h17.813l-4.188-4.625c-0.188-0.188-0.188-0.563 0-0.75s0.563-0.188 0.75 0c0 0 4.938 5.438 5 5.5s0.125 0.188 0.125 0.375c0 0.188-0.063 0.313-0.125 0.375s-5 5.5-5 5.5c-0.125 0.125-0.25 0.125-0.375 0.125s-0.25 0-0.375-0.125z"></path>
</symbol>
<symbol id="arrow-up-1" viewBox="0 0 32 32">
<path d="M21.875 11.875c-0.188 0.188-0.563 0.188-0.75 0l-4.625-4.188v17.813c0 0.25-0.25 0.5-0.5 0.5s-0.5-0.25-0.5-0.5v-17.813l-4.625 4.188c-0.188 0.188-0.563 0.188-0.75 0s-0.188-0.563 0-0.75c0 0 5.438-4.938 5.5-5s0.188-0.125 0.375-0.125c0.188 0 0.313 0.063 0.375 0.125s5.5 5 5.5 5c0.125 0.125 0.125 0.25 0.125 0.375s0 0.25-0.125 0.375z"></path>
</symbol>
<symbol id="comment-o" viewBox="0 0 32 32">
<path d="M16 6.875c-2.438 0-4.688 0.375-6.813 1.25-2.125 0.813-3.813 1.938-5.063 3.313-1.188 1.438-1.813 2.938-1.813 4.563 0 1.313 0.375 2.625 1.25 3.813s2.063 2.25 3.625 3.125l1.5 0.875-0.438 1.75c-0.313 1.063-0.75 2.125-1.25 3.063 1.813-0.75 3.438-1.75 4.875-3.063l0.813-0.688 1 0.125c0.813 0.125 1.563 0.125 2.313 0.125 2.438 0 4.688-0.375 6.813-1.25 2.125-0.813 3.813-1.938 5.063-3.313 1.188-1.438 1.813-2.938 1.813-4.563s-0.625-3.125-1.813-4.563c-1.25-1.375-2.938-2.5-5.063-3.313-2.125-0.875-4.375-1.25-6.813-1.25zM32 16c0 2.063-0.688 4-2.125 5.75s-3.375 3.125-5.813 4.125c-2.5 1.063-5.188 1.563-8.063 1.563-0.813 0-1.688-0.063-2.563-0.125-2.375 2.063-5.125 3.5-8.25 4.313-0.563 0.125-1.25 0.25-2 0.375h-0.125c-0.188 0-0.313-0.063-0.5-0.188-0.125-0.125-0.188-0.313-0.25-0.5v0c-0.063-0.063-0.063-0.125 0-0.25 0-0.063 0-0.125 0-0.125 0-0.063 0.063-0.125 0.125-0.188l0.063-0.188 0.313-0.313c0.063-0.063 0.25-0.313 0.5-0.625 0.313-0.313 0.5-0.5 0.625-0.625 0.125-0.188 0.313-0.375 0.563-0.75 0.25-0.313 0.438-0.625 0.563-0.875 0.188-0.313 0.313-0.625 0.5-1.063s0.313-0.875 0.5-1.375c-1.875-1.063-3.375-2.375-4.438-3.938s-1.625-3.188-1.625-5c0-2.063 0.688-4 2.125-5.75s3.375-3.125 5.813-4.125c2.5-1.063 5.188-1.563 8.063-1.563s5.563 0.5 8.063 1.563c2.438 1 4.375 2.375 5.813 4.125s2.125 3.688 2.125 5.75z"></path>
</symbol>
<symbol id="long-arrow-down" viewBox="0 0 32 32">
<path d="M22.813 23.188c0.063 0.25 0.063 0.438-0.125 0.625l-6.25 6.875c-0.063 0.125-0.25 0.188-0.375 0.188-0.188 0-0.313-0.063-0.438-0.188l-6.313-6.875c-0.188-0.188-0.188-0.375-0.125-0.625 0.125-0.188 0.313-0.313 0.5-0.313h4v-22.313c0-0.188 0.063-0.313 0.188-0.375 0.125-0.125 0.25-0.188 0.438-0.188h3.375c0.188 0 0.313 0.063 0.438 0.188 0.125 0.063 0.188 0.188 0.188 0.375v22.313h4c0.25 0 0.375 0.125 0.5 0.313z"></path>
</symbol>
<symbol id="link" viewBox="0 0 32 32">
<path d="M14.125 21.875c0.563 0.5 0.563 1.375 0 1.875-0.5 0.563-1.375 0.563-1.875 0-2.625-2.563-2.625-6.813 0-9.375l4.688-4.75c2.625-2.625 6.813-2.625 9.438 0s2.625 6.813 0 9.438l-2 2c0-1.125-0.125-2.188-0.5-3.25l0.625-0.625c1.563-1.563 1.563-4.125 0-5.688s-4.125-1.563-5.688 0l-4.688 4.75c-1.563 1.563-1.563 4.063 0 5.625M17.875 16.25c0.5-0.563 1.375-0.563 1.875 0 2.625 2.563 2.625 6.813 0 9.375l-4.688 4.75c-2.625 2.625-6.813 2.625-9.438 0s-2.625-6.813 0-9.438l2-2c0 1.125 0.125 2.188 0.5 3.25l-0.625 0.625c-1.563 1.563-1.563 4.125 0 5.688s4.125 1.563 5.688 0l4.688-4.75c1.563-1.563 1.563-4.063 0-5.625-0.563-0.5-0.563-1.375 0-1.875z"></path>
</symbol>
<symbol id="carrot-right-2" viewBox="0 0 32 32">
<path d="M13.313 26.688l6.688-6.688-6.688-6.688z"></path>
</symbol>
<symbol id="mouse-large" viewBox="0 0 32 32">
<path d="M14.688 5.438c-5.313 0.625-9.375 5.125-9.375 10.563h9.375M5.313 24c0 5.875 4.813 10.688 10.688 10.688s10.688-4.813 10.688-10.688v-5.313h-21.375M17.313 5.438v10.563h9.375c0-5.438-4.125-9.938-9.375-10.563z"></path>
</symbol>
<symbol id="mouse-small" viewBox="0 0 32 32">
<path d="M18.688 13.313h-5.375v-6.5c3.063 0.625 5.375 3.313 5.375 6.5M5.313 13.313c0-3.188 2.313-5.875 5.375-6.5v6.5h-5.375M18.688 20c0 3.25-2.313 5.938-5.375 6.563v1.438c0 2.188 1.813 4 4 4 2.25 0 4-1.813 4-4v-6.688c0-2.938 2.438-5.313 5.375-5.313h2.625l-1.313 1.313 1.313 1.375h-2.625c-1.5 0-2.688 1.188-2.688 2.625v6.688c0 3.688-3 6.688-6.688 6.688s-6.625-3-6.625-6.688v-1.438c-3.063-0.625-5.375-3.313-5.375-6.563v-4h13.375z"></path>
</symbol>
<symbol id="lightbulb-1" viewBox="0 0 32 32">
<path d="M26.688 18.688h4v2.625h-4v-2.625M1.313 18.688h4v2.625h-4v-2.625M17.313 5.313v4h-2.625v-4h2.625M6.563 8.688l2.813 2.813-1.875 1.875-2.813-2.813 1.875-1.875M22.625 11.5l2.813-2.813 1.875 1.875-2.813 2.813-1.875-1.875M16 12c4.438 0 8 3.563 8 8 0 2.938-1.625 5.563-4 6.938v2.375c0 0.75-0.625 1.375-1.313 1.375h-5.375c-0.688 0-1.313-0.625-1.313-1.375v-2.375c-2.375-1.375-4-4-4-6.938 0-4.438 3.563-8 8-8M18.688 32v1.313c0 0.75-0.625 1.375-1.375 1.375h-2.625c-0.75 0-1.375-0.625-1.375-1.375v-1.313h5.375M14.688 28h2.625v-2.813c2.313-0.625 4-2.688 4-5.188 0-2.938-2.375-5.313-5.313-5.313s-5.313 2.375-5.313 5.313c0 2.5 1.688 4.563 4 5.188z"></path>
</symbol>
<symbol id="lightbulb-2" viewBox="0 0 32 32">
<path d="M16 6.688c5.188 0 9.313 4.125 9.313 9.313 0 3.188-1.563 5.938-4 7.625v3.063c0 0.688-0.563 1.313-1.313 1.313h-8c-0.75 0-1.313-0.625-1.313-1.313v-3.063c-2.438-1.688-4-4.438-4-7.625 0-5.188 4.125-9.313 9.313-9.313M12 32v-1.313h8v1.313c0 0.75-0.625 1.313-1.313 1.313h-5.375c-0.688 0-1.313-0.563-1.313-1.313M16 9.313c-3.688 0-6.688 3-6.688 6.688 0 2.75 1.688 5.063 4 6.125v3.188h5.375v-3.188c2.313-1.063 4-3.375 4-6.125 0-3.688-3-6.688-6.688-6.688z"></path>
</symbol>
<symbol id="plus-1" viewBox="0 0 32 32">
<path d="M24 16.563h-7.5v7.438h-1.063v-7.438h-7.438v-1.063h7.438v-7.5h1.063v7.5h7.5z"></path>
</symbol>
<symbol id="minus-1" viewBox="0 0 32 32">
<path d="M24 16.563h-16v-1.063h16z"></path>
</symbol>
<symbol id="minus-2" viewBox="0 0 32 32">
<path d="M4 18v-4h24v4z"></path>
</symbol>
<symbol id="plus-3" viewBox="0 0 32 32">
<path d="M32 14v4h-14v14h-4v-14h-14v-4h14v-14h4v14z"></path>
</symbol>
<symbol id="minus-3" viewBox="0 0 32 32">
<path d="M0 18v-4h32v4z"></path>
</symbol>
<symbol id="plus-2" viewBox="0 0 32 32">
<path d="M28 14v4h-10v10h-4v-10h-10v-4h10v-10h4v10z"></path>
</symbol>
<symbol id="accessible" viewBox="0 0 32 32">
<path d="M28 16h-8v17.313h-2.688v-8h-2.625v8h-2.688v-17.313h-8v-2.688h24M16 6.688c1.438 0 2.688 1.188 2.688 2.625 0 1.5-1.25 2.688-2.688 2.688-1.5 0-2.688-1.188-2.688-2.688 0-1.438 1.188-2.625 2.688-2.625z"></path>
</symbol>
<symbol id="paintbucket" viewBox="0 0 32 32">
<path d="M8 4l2.5 4.5-9.5 9.5 12.375 12 10.188-10 3.625-0.75-17.188-17.25zM20.313 18h-13.75l6.875-6.875zM27.188 19.25c0 0-3.75 4.125-3.75 6.188s1.688 3.75 3.75 3.75c2.125 0 3.813-1.688 3.813-3.75s-3.813-6.188-3.813-6.188z"></path>
</symbol>
<symbol id="image" viewBox="0 0 32 32">
<path d="M23 14c1.688 0 3-1.313 3-3 0-1.625-1.313-3-3-3-1.625 0-3 1.375-3 3 0 1.688 1.375 3 3 3zM28.25 4h-24.5c-1 0-1.75 0.813-1.75 1.75v20.5c0 0.938 0.75 1.75 1.75 1.75h24.5c1 0 1.75-0.813 1.75-1.75v-20.5c0-0.938-0.75-1.75-1.75-1.75zM21.813 16.375c-0.188-0.25-0.5-0.375-0.813-0.375s-0.563 0.125-0.813 0.313l-1.125 1c-0.25 0.188-0.438 0.313-0.75 0.313-0.25 0-0.5-0.125-0.688-0.25-0.063-0.063-0.188-0.188-0.25-0.25l-3.375-3.688c-0.25-0.25-0.625-0.438-1.063-0.438-0.375 0-0.813 0.188-1 0.5l-7.938 9.5v-16.25c0.063-0.438 0.375-0.75 0.813-0.75h22.375c0.438 0 0.75 0.313 0.813 0.75v16.25z"></path>
</symbol>
<symbol id="alert" viewBox="0 0 32 32">
<path d="M20 30h-8v-6h8zM19 20h-6l-1-18h8z"></path>
</symbol>
<symbol id="search-plus" viewBox="0 0 32 32">
<path d="M31.688 30.313l-8.813-8.938c1.875-2.25 3-5.188 3-8.375 0-7.188-5.75-13-12.938-13s-13.063 5.813-13.063 13c0 7.188 5.875 13.063 13.063 13.063 3.25 0 6.25-1.25 8.5-3.25l8.875 8.875c0.375 0.375 1 0.375 1.375 0 0.438-0.375 0.438-1 0-1.375zM12.875 24c-6 0-11-4.938-11-11s5-11 11-11c6.063 0 11 4.938 11 11s-4.938 11-11 11zM17.875 12h-4v-4c0-0.563-0.438-1-1-1s-1 0.438-1 1v4h-4c-0.563 0-1 0.438-1 1s0.438 1 1 1h4v4c0 0.563 0.438 1 1 1s1-0.438 1-1v-4h4c0.563 0 1-0.438 1-1s-0.438-1-1-1z"></path>
</symbol>
<symbol id="sign-lines" viewBox="0 0 32 32">
<path d="M31.813 5.813l-3.125-3.5c-0.188-0.188-0.5-0.313-0.75-0.313h-10.938v-1.063c0-0.5-0.5-0.938-1-0.938-0.563 0-1 0.438-1 0.938v1.063h-8c-0.563 0-1 0.438-1 1v7c0 0.563 0.438 1 1 1h8v2h-10.938c-0.25 0-0.563 0.125-0.75 0.313l-3.125 3.563c-0.313 0.375-0.313 0.938 0 1.313l3.125 3.5c0.188 0.25 0.5 0.313 0.75 0.313h10.938v9.063c0 0.5 0.438 0.938 1 0.938 0.5 0 1-0.438 1-0.938v-9.063h8c0.563 0 1-0.438 1-1v-7c0-0.563-0.438-1-1-1h-8v-2h10.938c0.25 0 0.563-0.125 0.75-0.375l3.125-3.5c0.313-0.375 0.313-0.938 0-1.313zM24 20h-19.5l-2.188-2.438 2.188-2.563h19.5zM27.5 9h-19.5v-5h19.5l2.188 2.5z"></path>
</symbol>
<symbol id="destination-lines" viewBox="0 0 32 32">
<path d="M16.125 0c-6.563 0-12.125 5.563-12.125 12.188 0 6.938 6.438 14 10.75 19 0.063 0 0.75 0.813 1.625 0.813h0.063c0.875 0 1.563-0.813 1.563-0.813 4.063-4.688 10-12.375 10-19s-4.313-12.188-11.875-12.188zM16.5 29.875c0 0-0.063 0.063-0.125 0.063s-0.063-0.063-0.125-0.063l-0.5-0.625c-4.125-4.688-9.75-11.188-9.75-17.063 0-5.5 4.625-10.188 10.125-10.188 6.813 0 9.875 5.125 9.875 10.188 0 4.5-3.188 10.438-9.5 17.688zM16.063 6.063c-3.313 0-6 2.688-6 6s2.688 6 6 6c3.313 0 6-2.688 6-6s-2.688-6-6-6zM16.063 16.063c-2.25 0-4.063-1.875-4.063-4.063s1.813-4 4-4c2.188 0 4 1.813 4 4s-1.75 4.063-3.938 4.063z"></path>
</symbol>
<symbol id="person-lines" viewBox="0 0 32 32">
<path d="M2 30v-2.063c0-0.75 0.563-1 0.813-1.125l8.813-4.125c0.625-0.313 1.063-0.938 1.125-1.625s-0.188-1.313-0.75-1.75c-2.063-1.688-3-5.375-3-7.313v-5c0-2.063 3.625-5 7-5s7 2.875 7 5v5c0 1.938-0.813 5.625-3 7.313-0.5 0.438-0.813 1.125-0.75 1.813 0.125 0.688 0.563 1.25 1.188 1.563l5.063 2.438 1.188-1.688-5.438-2.563c2.813-2.188 3.75-6.5 3.75-8.875v-5c0-3.313-4.625-7-9-7-4.438 0-9 3.688-9 7v5c0 2.188 0.938 6.625 3.75 8.875l-8.75 4.125c0 0-2 0.875-2 2v3c0 1.125 0.875 2 2 2h20l-1.625-2zM31.625 22.625c-0.438-0.375-1.063-0.25-1.375 0.125l-4.313 6.563-2.625-2.688c-0.438-0.375-1.063-0.375-1.438 0-0.375 0.438-0.375 1.063 0 1.438l3.563 3.5c0.375 0.438 1 0.438 1.375 0 0.125-0.063 0.188-0.188 0.25-0.313l4.75-7.25c0.313-0.438 0.25-1.063-0.188-1.375z"></path>
</symbol>
<symbol id="graduation-lines" viewBox="0 0 32 32">
<path d="M30.938 21.75v-8.063l0.5-0.25c0.375-0.188 0.563-0.5 0.563-0.875s-0.188-0.75-0.5-0.875l-15.063-8.063c-0.313-0.188-0.688-0.188-0.938 0l-15 8.063c-0.313 0.188-0.5 0.5-0.5 0.875s0.188 0.688 0.5 0.875l6.625 3.5c-0.125 0.125-0.188 0.313-0.188 0.5v8.438c0 0.313 0.125 0.563 0.375 0.75 0.188 0.188 2.25 1.875 8.625 1.875 6.313 0 8.5-1.563 8.688-1.75 0.25-0.188 0.375-0.5 0.375-0.813v-8.688c0-0.125 0-0.25-0.063-0.375l4-2.125v7c-0.563 0.375-0.938 1-0.938 1.75 0 1.063 0.875 2 2 2 1.063 0 2-0.938 2-2 0-0.75-0.438-1.375-1.063-1.75zM23 25.375c-0.813 0.375-2.875 1.125-7.063 1.125s-6.25-0.813-7-1.188v-7.375l6.5 3.438c0.188 0.063 0.313 0.125 0.5 0.125 0.125 0 0.313-0.063 0.438-0.125l6.625-3.5zM15.938 19.375l-12.875-6.813 12.875-6.938 12.938 6.875z"></path>
</symbol>
<symbol id="tag" viewBox="0 0 32 32">
<path d="M10.313 8c0-0.625-0.25-1.188-0.688-1.625s-1-0.688-1.625-0.688c-0.625 0-1.188 0.25-1.625 0.688s-0.688 1-0.688 1.625c0 0.625 0.25 1.188 0.688 1.625s1 0.688 1.625 0.688c0.625 0 1.188-0.25 1.625-0.688s0.688-1 0.688-1.625zM29.313 18.313c0 0.625-0.188 1.125-0.625 1.563l-8.75 8.813c-0.5 0.438-1.063 0.625-1.625 0.625-0.688 0-1.188-0.188-1.625-0.625l-12.75-12.813c-0.5-0.438-0.875-1-1.188-1.813-0.313-0.75-0.438-1.438-0.438-2.063v-7.438c0-0.625 0.188-1.125 0.625-1.625 0.5-0.438 1-0.625 1.625-0.625h7.438c0.625 0 1.313 0.125 2.063 0.438 0.813 0.313 1.375 0.688 1.875 1.188l12.75 12.75c0.438 0.438 0.625 1 0.625 1.625z"></path>
</symbol>
<symbol id="home-full" viewBox="0 0 32 32">
<path d="M13 28v-8h6v8h6.125v-12h3.875l-13-12-13 12h3.875v12z"></path>
</symbol>
<symbol id="flickr" viewBox="0 0 32 32">
<path d="M24.563 2.313c1.438 0 2.625 0.5 3.625 1.5s1.5 2.188 1.5 3.625v17.125c0 1.438-0.5 2.625-1.5 3.625s-2.188 1.5-3.625 1.5h-17.125c-1.438 0-2.625-0.5-3.625-1.5s-1.5-2.188-1.5-3.625v-17.125c0-1.438 0.5-2.625 1.5-3.625s2.188-1.5 3.625-1.5zM14.75 16c0-1.063-0.375-1.938-1.125-2.688s-1.625-1.125-2.688-1.125c-1 0-1.938 0.375-2.625 1.125-0.75 0.75-1.125 1.625-1.125 2.688s0.375 1.938 1.125 2.688c0.688 0.75 1.625 1.125 2.625 1.125 1.063 0 1.938-0.375 2.688-1.125s1.125-1.625 1.125-2.688zM24.813 16c0-1.063-0.375-1.938-1.125-2.688-0.688-0.75-1.625-1.125-2.625-1.125-1.063 0-1.938 0.375-2.688 1.125s-1.125 1.625-1.125 2.688c0 1.063 0.375 1.938 1.125 2.688s1.625 1.125 2.688 1.125c1 0 1.938-0.375 2.625-1.125 0.75-0.75 1.125-1.625 1.125-2.688z"></path>
</symbol>
</defs>
</svg>
