<?xml version="1.0" encoding="utf-8"?>
<!-- Generator: Adobe Illustrator 22.1.0, SVG Export Plug-In . SVG Version: 6.00 Build 0)  -->
<svg version="1.1" id="Layer_1" xmlns="http://www.w3.org/2000/svg" xmlns:xlink="http://www.w3.org/1999/xlink" x="0px" y="0px"
	 viewBox="0 0 537 156" style="enable-background:new 0 0 537 156;" xml:space="preserve">
<style type="text/css">
	.st0{fill:#C4922C;}
	.st1{fill:#00806E;stroke:#00806E;stroke-width:3;stroke-miterlimit:10;}
</style>
<path class="st0" d="M242.6,118.3c-1.2,0-2.2-1-2.2-2.2V35.3c0-1.2,1-2.2,2.2-2.2h29c6,0,11.6,1,16.7,2.9c5.1,1.9,9.6,4.7,13.3,8.4
	c3.7,3.7,6.7,8.2,8.8,13.4c2.1,5.3,3.2,11.3,3.2,17.9s-1.1,12.7-3.2,17.9c-2.1,5.3-5.1,9.8-8.9,13.4c-3.8,3.6-8.3,6.4-13.4,8.3
	c-5.1,1.9-10.7,2.9-16.7,2.9H242.6z M270.8,99.3c3,0,5.9-0.5,8.6-1.4c2.7-0.9,5-2.3,7-4.2c2-1.9,3.6-4.4,4.7-7.3
	c1.2-3,1.8-6.5,1.8-10.7c0-4.1-0.6-7.7-1.8-10.7c-1.2-2.9-2.8-5.4-4.7-7.3c-1.9-1.9-4.3-3.3-6.9-4.3c-2.7-1-5.6-1.5-8.6-1.5h-10.5
	v47.3H270.8z"/>
<path class="st0" d="M321.3,118.3c-1.2,0-2.2-1-2.2-2.2V60c0-1.2,1-2.2,2.2-2.2h15.2c1.2,0,2.2,1,2.2,2.2v56.1c0,1.2-1,2.2-2.2,2.2
	H321.3z M328.9,53c-3.2,0-5.9-1.1-8.1-3.4c-2.2-2.2-3.4-4.9-3.4-8c0-3.2,1.1-6,3.4-8.3c2.2-2.2,5-3.4,8.1-3.4c3.2,0,6,1.1,8.2,3.4
	c2.2,2.2,3.3,5,3.3,8.2c0,3.1-1.1,5.8-3.3,8C334.9,51.9,332.1,53,328.9,53z"/>
<path class="st0" d="M368.6,120c-4.5,0-8.4-0.7-11.6-2c-3.1-1.3-5.7-3-7.7-4.9c-2-1.9-3.6-4.1-4.5-6.3c-1-2.2-1.5-4.3-1.7-6.1
	c-0.1-1.1,0.6-2.1,1.7-2.3l13-2.8c0.2,0,0.3-0.1,0.5-0.1c0.5,0,0.9,0.1,1.3,0.4c0.5,0.4,0.8,1,0.9,1.6c0.1,1.7,0.8,3.2,2.1,4.6
	c1.2,1.3,3.2,2,6,2c1.9,0,3.3-0.4,4.1-1.1c0.8-0.7,1.1-1.4,1.1-2.3c0-0.7-0.2-1.3-0.8-1.9c-0.3-0.4-1.2-1-3.6-1.5l-7.5-1.7
	c-5.9-1.3-10.3-3.7-13.1-7c-2.8-3.4-4.3-7.4-4.3-11.8c0-2.8,0.6-5.5,1.8-8.1c1.2-2.5,2.8-4.7,4.9-6.5c2-1.8,4.5-3.2,7.3-4.3
	c2.8-1.1,5.9-1.6,9.2-1.6c4.2,0,7.9,0.6,10.8,1.8c3,1.2,5.5,2.8,7.4,4.6c1.9,1.9,3.3,3.9,4.3,6c0.9,2.1,1.5,4,1.7,5.7
	c0.1,1.1-0.6,2.1-1.7,2.3l-12.7,2.9c-0.2,0-0.3,0.1-0.5,0.1c-0.4,0-0.8-0.1-1.2-0.4c-0.5-0.3-0.8-0.8-0.9-1.4
	c-0.1-0.7-0.3-1.4-0.6-2.2c-0.2-0.6-0.6-1.2-1.2-1.7c-0.6-0.6-1.3-1-2.1-1.4c-0.8-0.3-1.9-0.5-3.2-0.5c-1.5,0-2.7,0.4-3.8,1.2
	c-1.1,0.8-1.3,1.7-1.3,2.3c0,1,0.4,1.4,0.7,1.7c0.7,0.6,1.6,1,2.7,1.2l8,1.7c6,1.2,10.6,3.6,13.6,7.1c3.1,3.5,4.7,7.6,4.7,12.3
	c0,2.5-0.5,5.1-1.5,7.5c-1,2.5-2.5,4.7-4.6,6.7c-2,1.9-4.6,3.5-7.6,4.7C376,119.4,372.5,120,368.6,120z"/>
<path class="st0" d="M425.1,120c-4.4,0-8.5-0.8-12.4-2.4c-3.9-1.6-7.3-3.8-10.1-6.7c-2.8-2.8-5.1-6.2-6.7-10.1
	c-1.6-3.9-2.4-8.1-2.4-12.8c0-4.6,0.8-8.9,2.4-12.8c1.6-3.9,3.8-7.3,6.6-10.1c2.8-2.8,6.1-5,9.9-6.6c3.8-1.6,7.9-2.4,12.3-2.4
	c4,0,7.7,0.6,10.9,1.8c3.2,1.2,6,2.7,8.4,4.6c2.4,1.9,4.4,4.1,5.9,6.6c1.5,2.4,2.5,5,3.2,7.5c0.3,1.1-0.3,2.2-1.4,2.6l-13.6,4.6
	c-0.2,0.1-0.5,0.1-0.7,0.1c-0.3,0-0.7-0.1-1-0.2c-0.5-0.3-0.9-0.7-1.1-1.3c-0.6-2-1.7-3.9-3.4-5.6c-1.5-1.6-3.8-2.3-7-2.3
	c-1.7,0-3.3,0.3-4.7,0.9c-1.4,0.6-2.7,1.4-3.8,2.5c-1.1,1.1-2,2.5-2.6,4.2c-0.7,1.7-1,3.7-1,6c0,2.2,0.3,4.2,1,5.9
	c0.7,1.7,1.5,3.1,2.7,4.3c1.1,1.1,2.4,2,3.8,2.6c1.4,0.6,3,0.9,4.7,0.9c1.6,0,3.1-0.2,4.3-0.7c1.2-0.5,2.3-1.1,3.2-1.8
	c0.9-0.7,1.6-1.6,2.1-2.5c0.6-1,1-1.9,1.2-2.8c0.2-0.6,0.5-1,1.1-1.3c0.3-0.2,0.7-0.2,1-0.2c0.2,0,0.5,0,0.7,0.1l13.3,4.4
	c1.1,0.4,1.7,1.5,1.4,2.6c-0.7,2.6-1.8,5.1-3.3,7.5c-1.5,2.4-3.5,4.6-5.9,6.6c-2.4,1.9-5.2,3.5-8.4,4.7
	C432.7,119.4,429,120,425.1,120z"/>
<path class="st0" d="M484.5,120c-4.4,0-8.7-0.8-12.5-2.4c-3.9-1.6-7.3-3.8-10.1-6.7c-2.8-2.8-5-6.2-6.6-10.1
	c-1.6-3.9-2.4-8.1-2.4-12.7c0-4.6,0.8-8.9,2.4-12.8c1.6-3.9,3.8-7.3,6.6-10.1c2.8-2.8,6.2-5,10.1-6.6c3.9-1.6,8.1-2.4,12.5-2.4
	c4.4,0,8.7,0.8,12.5,2.4c3.9,1.6,7.2,3.8,10.1,6.6c2.8,2.8,5,6.2,6.6,10.1c1.6,3.9,2.4,8.2,2.4,12.8c0,4.6-0.8,8.9-2.4,12.7
	c-1.6,3.9-3.8,7.3-6.6,10.1c-2.8,2.9-6.2,5.1-10.1,6.7C493.1,119.2,488.9,120,484.5,120z M484.5,74.3c-1.5,0-3.1,0.3-4.6,0.9
	c-1.5,0.6-2.7,1.4-3.8,2.5c-1.1,1.1-2,2.6-2.7,4.3c-0.7,1.7-1,3.8-1,6.1c0,2.4,0.3,4.4,1,6.1c0.7,1.7,1.6,3.1,2.7,4.3
	c1.1,1.1,2.3,1.9,3.8,2.5c1.5,0.6,3,0.9,4.6,0.9s3.1-0.3,4.6-0.9c1.5-0.6,2.7-1.4,3.8-2.5c1.1-1.1,2-2.6,2.7-4.3
	c0.7-1.7,1-3.8,1-6.1c0-2.4-0.3-4.4-1-6.1c-0.7-1.7-1.6-3.1-2.7-4.3c-1.1-1.1-2.3-1.9-3.8-2.5C487.5,74.5,486,74.3,484.5,74.3z"/>
<g>
	<path class="st1" d="M50.8,44.2c6,0,11.8,1.5,17.5,4.6c5.7,3.1,10.1,7.5,13.3,13.2c3.2,5.7,4.8,11.7,4.8,17.9
		c0,6.2-1.6,12.1-4.7,17.7c-3.1,5.6-7.5,10-13.2,13.2c-5.7,3.1-11.6,4.7-17.8,4.7c-6.2,0-12.1-1.6-17.7-4.7
		c-5.7-3.1-10.1-7.5-13.2-13.2c-3.1-5.6-4.7-11.6-4.7-17.7c0-6.2,1.6-12.2,4.8-17.9c3.2-5.7,7.6-10.1,13.3-13.2
		C38.9,45.7,44.8,44.2,50.8,44.2z M34.2,50.3c-5.4,2.9-9.6,7.1-12.6,12.5c-3,5.4-4.5,11.1-4.5,17c0,5.9,1.5,11.5,4.5,16.8
		c3,5.4,7.2,9.5,12.5,12.5c5.4,3,11,4.5,16.8,4.5c5.9,0,11.5-1.5,16.9-4.5c5.4-3,9.5-7.2,12.5-12.5c3-5.4,4.5-11,4.5-16.8
		c0-5.9-1.5-11.6-4.6-17c-3.1-5.4-7.3-9.6-12.7-12.5c-5.4-2.9-10.9-4.4-16.6-4.4S39.6,47.4,34.2,50.3z M50.8,51.3
		c4.8,0,9.4,1.2,14,3.7c4.5,2.5,8.1,6,10.7,10.5c2.6,4.6,3.9,9.3,3.9,14.3c0,4.9-1.3,9.7-3.8,14.2c-2.5,4.5-6,8-10.6,10.5
		c-4.5,2.5-9.3,3.8-14.2,3.8c-4.9,0-9.7-1.3-14.2-3.8c-4.5-2.5-8-6-10.6-10.5c-2.5-4.5-3.8-9.2-3.8-14.2c0-5,1.3-9.8,3.8-14.3
		c2.6-4.6,6.1-8.1,10.6-10.5C41.3,52.5,46,51.3,50.8,51.3z M37.2,55.8c-4.4,2.4-7.8,5.8-10.3,10.2c-2.5,4.4-3.7,9.1-3.7,13.9
		c0,4.8,1.2,9.4,3.6,13.7c2.4,4.4,5.8,7.8,10.2,10.2c4.4,2.4,9,3.6,13.8,3.6s9.4-1.2,13.8-3.6c4.4-2.4,7.8-5.8,10.2-10.2
		c2.4-4.4,3.6-9,3.6-13.7c0-4.8-1.2-9.5-3.7-13.9c-2.5-4.4-5.9-7.8-10.3-10.2c-4.4-2.4-8.9-3.6-13.5-3.6
		C46.2,52.2,41.6,53.4,37.2,55.8z M50.8,57.5c3.7,0,7.4,1,10.9,2.9c3.6,1.9,6.3,4.7,8.3,8.2c2,3.6,3,7.3,3,11.2
		c0,3.9-1,7.6-2.9,11.1c-2,3.5-4.7,6.3-8.3,8.2c-3.5,2-7.2,2.9-11.1,2.9s-7.5-1-11.1-2.9c-3.5-2-6.3-4.7-8.3-8.2
		c-2-3.5-2.9-7.2-2.9-11.1c0-3.9,1-7.6,3-11.2c2-3.6,4.8-6.3,8.3-8.2C43.4,58.5,47.1,57.5,50.8,57.5z M40.3,61.2
		c-3.4,1.8-6.1,4.5-8,7.9c-1.9,3.4-2.9,7-2.9,10.7c0,3.7,0.9,7.3,2.8,10.7c1.9,3.4,4.5,6,7.9,7.9c3.4,1.9,7,2.8,10.7,2.8
		s7.3-0.9,10.7-2.8c3.4-1.9,6-4.5,7.9-7.9c1.9-3.4,2.8-6.9,2.8-10.7c0-3.7-1-7.3-2.9-10.7s-4.6-6.1-8-7.9c-3.4-1.8-6.9-2.8-10.5-2.8
		C47.2,58.4,43.7,59.3,40.3,61.2z"/>
	<path class="st1" d="M120.8,44.2c6,0,11.8,1.5,17.5,4.6c5.7,3.1,10.1,7.5,13.3,13.2c3.2,5.7,4.8,11.7,4.8,17.9
		c0,6.2-1.6,12.1-4.7,17.7c-3.1,5.6-7.5,10-13.2,13.2c-5.7,3.1-11.6,4.7-17.8,4.7c-6.2,0-12.1-1.6-17.7-4.7
		c-5.7-3.1-10.1-7.5-13.2-13.2c-3.1-5.6-4.7-11.6-4.7-17.7c0-6.2,1.6-12.2,4.8-17.9c3.2-5.7,7.6-10.1,13.3-13.2
		C109,45.7,114.8,44.2,120.8,44.2z M104.2,50.3c-5.4,2.9-9.6,7.1-12.6,12.5c-3,5.4-4.5,11.1-4.5,17c0,5.9,1.5,11.5,4.5,16.8
		c3,5.4,7.2,9.5,12.5,12.5c5.4,3,11,4.5,16.8,4.5c5.9,0,11.5-1.5,16.9-4.5c5.4-3,9.5-7.2,12.5-12.5c3-5.4,4.5-11,4.5-16.8
		c0-5.9-1.5-11.6-4.6-17c-3.1-5.4-7.3-9.6-12.7-12.5c-5.4-2.9-10.9-4.4-16.6-4.4S109.6,47.4,104.2,50.3z M120.9,51.3
		c4.8,0,9.4,1.2,14,3.7c4.5,2.5,8.1,6,10.7,10.5c2.6,4.6,3.9,9.3,3.9,14.3c0,4.9-1.3,9.7-3.8,14.2c-2.5,4.5-6,8-10.6,10.5
		c-4.5,2.5-9.3,3.8-14.2,3.8c-4.9,0-9.7-1.3-14.2-3.8c-4.5-2.5-8-6-10.6-10.5c-2.5-4.5-3.8-9.2-3.8-14.2c0-5,1.3-9.8,3.8-14.3
		c2.6-4.6,6.1-8.1,10.6-10.5C111.4,52.5,116,51.3,120.9,51.3z M107.2,55.8c-4.4,2.4-7.8,5.8-10.3,10.2c-2.5,4.4-3.7,9.1-3.7,13.9
		c0,4.8,1.2,9.4,3.6,13.7c2.4,4.4,5.8,7.8,10.2,10.2c4.4,2.4,9,3.6,13.8,3.6s9.4-1.2,13.8-3.6c4.4-2.4,7.8-5.8,10.2-10.2
		c2.4-4.4,3.6-9,3.6-13.7c0-4.8-1.2-9.5-3.7-13.9c-2.5-4.4-5.9-7.8-10.3-10.2c-4.4-2.4-8.9-3.6-13.5-3.6
		C116.2,52.2,111.6,53.4,107.2,55.8z M120.9,57.5c3.7,0,7.4,1,10.9,2.9c3.6,1.9,6.3,4.7,8.3,8.2c2,3.6,3,7.3,3,11.2
		c0,3.9-1,7.6-2.9,11.1c-2,3.5-4.7,6.3-8.3,8.2c-3.5,2-7.2,2.9-11.1,2.9s-7.5-1-11.1-2.9c-3.5-2-6.3-4.7-8.3-8.2
		c-2-3.5-2.9-7.2-2.9-11.1c0-3.9,1-7.6,3-11.2c2-3.6,4.8-6.3,8.3-8.2C113.4,58.5,117.1,57.5,120.9,57.5z M110.3,61.2
		c-3.4,1.8-6.1,4.5-8,7.9c-1.9,3.4-2.9,7-2.9,10.7c0,3.7,0.9,7.3,2.8,10.7c1.9,3.4,4.5,6,7.9,7.9c3.4,1.9,7,2.8,10.7,2.8
		s7.3-0.9,10.7-2.8c3.4-1.9,6-4.5,7.9-7.9c1.9-3.4,2.8-6.9,2.8-10.7c0-3.7-1-7.3-2.9-10.7s-4.6-6.1-8-7.9c-3.4-1.8-6.9-2.8-10.5-2.8
		C117.3,58.4,113.7,59.3,110.3,61.2z"/>
	<path class="st1" d="M190.9,44.2c6,0,11.8,1.5,17.5,4.6c5.7,3.1,10.1,7.5,13.3,13.2c3.2,5.7,4.8,11.7,4.8,17.9
		c0,6.2-1.6,12.1-4.7,17.7c-3.1,5.6-7.5,10-13.2,13.2c-5.7,3.1-11.6,4.7-17.8,4.7c-6.2,0-12.1-1.6-17.7-4.7
		c-5.7-3.1-10.1-7.5-13.2-13.2c-3.1-5.6-4.7-11.6-4.7-17.7c0-6.2,1.6-12.2,4.8-17.9c3.2-5.7,7.6-10.1,13.3-13.2
		C179,45.7,184.8,44.2,190.9,44.2z M174.2,50.3c-5.4,2.9-9.6,7.1-12.6,12.5c-3,5.4-4.5,11.1-4.5,17c0,5.9,1.5,11.5,4.5,16.8
		c3,5.4,7.2,9.5,12.5,12.5c5.4,3,11,4.5,16.8,4.5c5.9,0,11.5-1.5,16.9-4.5c5.4-3,9.5-7.2,12.5-12.5c3-5.4,4.5-11,4.5-16.8
		c0-5.9-1.5-11.6-4.6-17c-3.1-5.4-7.3-9.6-12.7-12.5c-5.4-2.9-10.9-4.4-16.6-4.4S179.6,47.4,174.2,50.3z M190.9,51.3
		c4.8,0,9.4,1.2,14,3.7c4.5,2.5,8.1,6,10.7,10.5c2.6,4.6,3.9,9.3,3.9,14.3c0,4.9-1.3,9.7-3.8,14.2c-2.5,4.5-6,8-10.6,10.5
		c-4.5,2.5-9.3,3.8-14.2,3.8c-4.9,0-9.7-1.3-14.2-3.8c-4.5-2.5-8-6-10.6-10.5c-2.5-4.5-3.8-9.2-3.8-14.2c0-5,1.3-9.8,3.8-14.3
		c2.6-4.6,6.1-8.1,10.6-10.5C181.4,52.5,186.1,51.3,190.9,51.3z M177.3,55.8c-4.4,2.4-7.8,5.8-10.3,10.2c-2.5,4.4-3.7,9.1-3.7,13.9
		c0,4.8,1.2,9.4,3.6,13.7c2.4,4.4,5.8,7.8,10.2,10.2c4.4,2.4,9,3.6,13.8,3.6s9.4-1.2,13.8-3.6c4.4-2.4,7.8-5.8,10.2-10.2
		c2.4-4.4,3.6-9,3.6-13.7c0-4.8-1.2-9.5-3.7-13.9c-2.5-4.4-5.9-7.8-10.3-10.2c-4.4-2.4-8.9-3.6-13.5-3.6
		C186.2,52.2,181.7,53.4,177.3,55.8z M190.9,57.5c3.7,0,7.4,1,10.9,2.9c3.6,1.9,6.3,4.7,8.3,8.2c2,3.6,3,7.3,3,11.2
		c0,3.9-1,7.6-2.9,11.1c-2,3.5-4.7,6.3-8.3,8.2c-3.5,2-7.2,2.9-11.1,2.9s-7.5-1-11.1-2.9c-3.5-2-6.3-4.7-8.3-8.2
		c-2-3.5-2.9-7.2-2.9-11.1c0-3.9,1-7.6,3-11.2c2-3.6,4.8-6.3,8.3-8.2C183.5,58.5,187.1,57.5,190.9,57.5z M180.4,61.2
		c-3.4,1.8-6.1,4.5-8,7.9c-1.9,3.4-2.9,7-2.9,10.7c0,3.7,0.9,7.3,2.8,10.7c1.9,3.4,4.5,6,7.9,7.9c3.4,1.9,7,2.8,10.7,2.8
		s7.3-0.9,10.7-2.8c3.4-1.9,6-4.5,7.9-7.9c1.9-3.4,2.8-6.9,2.8-10.7c0-3.7-1-7.3-2.9-10.7s-4.6-6.1-8-7.9c-3.4-1.8-6.9-2.8-10.5-2.8
		C187.3,58.4,183.8,59.3,180.4,61.2z"/>
</g>
</svg>
